<?xml version="1.0" encoding="utf-8" standalone="no"?>
<!DOCTYPE svg PUBLIC "-//W3C//DTD SVG 1.1//EN"
  "http://www.w3.org/Graphics/SVG/1.1/DTD/svg11.dtd">
<!-- Created with matplotlib (https://matplotlib.org/) -->
<svg height="345.6pt" version="1.1" viewBox="0 0 460.8 345.6" width="460.8pt" xmlns="http://www.w3.org/2000/svg" xmlns:xlink="http://www.w3.org/1999/xlink">
 <defs>
  <style type="text/css">
*{stroke-linecap:butt;stroke-linejoin:round;}
  </style>
 </defs>
 <g id="figure_1">
  <g id="patch_1">
   <path d="M 0 345.6 
L 460.8 345.6 
L 460.8 0 
L 0 0 
z
" style="fill:#ffffff;"/>
  </g>
  <g id="axes_1">
   <g id="text_1">
    <!-- ONE TEX TO ROOT PDF: -->
    <defs>
     <path d="M 39.40625 66.21875 
Q 28.65625 66.21875 22.328125 58.203125 
Q 16.015625 50.203125 16.015625 36.375 
Q 16.015625 22.609375 22.328125 14.59375 
Q 28.65625 6.59375 39.40625 6.59375 
Q 50.140625 6.59375 56.421875 14.59375 
Q 62.703125 22.609375 62.703125 36.375 
Q 62.703125 50.203125 56.421875 58.203125 
Q 50.140625 66.21875 39.40625 66.21875 
z
M 39.40625 74.21875 
Q 54.734375 74.21875 63.90625 63.9375 
Q 73.09375 53.65625 73.09375 36.375 
Q 73.09375 19.140625 63.90625 8.859375 
Q 54.734375 -1.421875 39.40625 -1.421875 
Q 24.03125 -1.421875 14.8125 8.828125 
Q 5.609375 19.09375 5.609375 36.375 
Q 5.609375 53.65625 14.8125 63.9375 
Q 24.03125 74.21875 39.40625 74.21875 
z
" id="DejaVuSans-79"/>
     <path d="M 9.8125 72.90625 
L 23.09375 72.90625 
L 55.421875 11.921875 
L 55.421875 72.90625 
L 64.984375 72.90625 
L 64.984375 0 
L 51.703125 0 
L 19.390625 60.984375 
L 19.390625 0 
L 9.8125 0 
z
" id="DejaVuSans-78"/>
     <path d="M 9.8125 72.90625 
L 55.90625 72.90625 
L 55.90625 64.59375 
L 19.671875 64.59375 
L 19.671875 43.015625 
L 54.390625 43.015625 
L 54.390625 34.71875 
L 19.671875 34.71875 
L 19.671875 8.296875 
L 56.78125 8.296875 
L 56.78125 0 
L 9.8125 0 
z
" id="DejaVuSans-69"/>
     <path id="DejaVuSans-32"/>
     <path d="M -0.296875 72.90625 
L 61.375 72.90625 
L 61.375 64.59375 
L 35.5 64.59375 
L 35.5 0 
L 25.59375 0 
L 25.59375 64.59375 
L -0.296875 64.59375 
z
" id="DejaVuSans-84"/>
     <path d="M 6.296875 72.90625 
L 16.890625 72.90625 
L 35.015625 45.796875 
L 53.21875 72.90625 
L 63.8125 72.90625 
L 40.375 37.890625 
L 65.375 0 
L 54.78125 0 
L 34.28125 31 
L 13.625 0 
L 2.984375 0 
L 29 38.921875 
z
" id="DejaVuSans-88"/>
     <path d="M 44.390625 34.1875 
Q 47.5625 33.109375 50.5625 29.59375 
Q 53.5625 26.078125 56.59375 19.921875 
L 66.609375 0 
L 56 0 
L 46.6875 18.703125 
Q 43.0625 26.03125 39.671875 28.421875 
Q 36.28125 30.8125 30.421875 30.8125 
L 19.671875 30.8125 
L 19.671875 0 
L 9.8125 0 
L 9.8125 72.90625 
L 32.078125 72.90625 
Q 44.578125 72.90625 50.734375 67.671875 
Q 56.890625 62.453125 56.890625 51.90625 
Q 56.890625 45.015625 53.6875 40.46875 
Q 50.484375 35.9375 44.390625 34.1875 
z
M 19.671875 64.796875 
L 19.671875 38.921875 
L 32.078125 38.921875 
Q 39.203125 38.921875 42.84375 42.21875 
Q 46.484375 45.515625 46.484375 51.90625 
Q 46.484375 58.296875 42.84375 61.546875 
Q 39.203125 64.796875 32.078125 64.796875 
z
" id="DejaVuSans-82"/>
     <path d="M 19.671875 64.796875 
L 19.671875 37.40625 
L 32.078125 37.40625 
Q 38.96875 37.40625 42.71875 40.96875 
Q 46.484375 44.53125 46.484375 51.125 
Q 46.484375 57.671875 42.71875 61.234375 
Q 38.96875 64.796875 32.078125 64.796875 
z
M 9.8125 72.90625 
L 32.078125 72.90625 
Q 44.34375 72.90625 50.609375 67.359375 
Q 56.890625 61.8125 56.890625 51.125 
Q 56.890625 40.328125 50.609375 34.8125 
Q 44.34375 29.296875 32.078125 29.296875 
L 19.671875 29.296875 
L 19.671875 0 
L 9.8125 0 
z
" id="DejaVuSans-80"/>
     <path d="M 19.671875 64.796875 
L 19.671875 8.109375 
L 31.59375 8.109375 
Q 46.6875 8.109375 53.6875 14.9375 
Q 60.6875 21.78125 60.6875 36.53125 
Q 60.6875 51.171875 53.6875 57.984375 
Q 46.6875 64.796875 31.59375 64.796875 
z
M 9.8125 72.90625 
L 30.078125 72.90625 
Q 51.265625 72.90625 61.171875 64.09375 
Q 71.09375 55.28125 71.09375 36.53125 
Q 71.09375 17.671875 61.125 8.828125 
Q 51.171875 0 30.078125 0 
L 9.8125 0 
z
" id="DejaVuSans-68"/>
     <path d="M 9.8125 72.90625 
L 51.703125 72.90625 
L 51.703125 64.59375 
L 19.671875 64.59375 
L 19.671875 43.109375 
L 48.578125 43.109375 
L 48.578125 34.8125 
L 19.671875 34.8125 
L 19.671875 0 
L 9.8125 0 
z
" id="DejaVuSans-70"/>
     <path d="M 11.71875 12.40625 
L 22.015625 12.40625 
L 22.015625 0 
L 11.71875 0 
z
M 11.71875 51.703125 
L 22.015625 51.703125 
L 22.015625 39.3125 
L 11.71875 39.3125 
z
" id="DejaVuSans-58"/>
    </defs>
    <g transform="translate(153.199062 99.227687)scale(0.14 -0.14)">
     <use xlink:href="#DejaVuSans-79"/>
     <use x="78.710938" xlink:href="#DejaVuSans-78"/>
     <use x="153.515625" xlink:href="#DejaVuSans-69"/>
     <use x="216.699219" xlink:href="#DejaVuSans-32"/>
     <use x="248.486328" xlink:href="#DejaVuSans-84"/>
     <use x="309.570312" xlink:href="#DejaVuSans-69"/>
     <use x="372.753906" xlink:href="#DejaVuSans-88"/>
     <use x="441.259766" xlink:href="#DejaVuSans-32"/>
     <use x="473.046875" xlink:href="#DejaVuSans-84"/>
     <use x="534.130859" xlink:href="#DejaVuSans-79"/>
     <use x="612.841797" xlink:href="#DejaVuSans-32"/>
     <use x="644.628906" xlink:href="#DejaVuSans-82"/>
     <use x="714.111328" xlink:href="#DejaVuSans-79"/>
     <use x="792.822266" xlink:href="#DejaVuSans-79"/>
     <use x="871.533203" xlink:href="#DejaVuSans-84"/>
     <use x="932.617188" xlink:href="#DejaVuSans-32"/>
     <use x="964.404297" xlink:href="#DejaVuSans-80"/>
     <use x="1024.707031" xlink:href="#DejaVuSans-68"/>
     <use x="1101.708984" xlink:href="#DejaVuSans-70"/>
     <use x="1151.478516" xlink:href="#DejaVuSans-58"/>
    </g>
    <!-- {"C:\\Users\\fan\\Documents\\Dropbox (UH- -->
    <defs>
     <path d="M 51.125 -9.28125 
L 51.125 -16.3125 
L 48.09375 -16.3125 
Q 35.9375 -16.3125 31.8125 -12.6875 
Q 27.6875 -9.078125 27.6875 1.703125 
L 27.6875 13.375 
Q 27.6875 20.75 25.046875 23.578125 
Q 22.40625 26.421875 15.484375 26.421875 
L 12.5 26.421875 
L 12.5 33.40625 
L 15.484375 33.40625 
Q 22.46875 33.40625 25.078125 36.203125 
Q 27.6875 39.015625 27.6875 46.296875 
L 27.6875 58.015625 
Q 27.6875 68.796875 31.8125 72.390625 
Q 35.9375 75.984375 48.09375 75.984375 
L 51.125 75.984375 
L 51.125 69 
L 47.796875 69 
Q 40.921875 69 38.8125 66.84375 
Q 36.71875 64.703125 36.71875 57.8125 
L 36.71875 45.703125 
Q 36.71875 38.03125 34.5 34.5625 
Q 32.28125 31.109375 26.90625 29.890625 
Q 32.328125 28.5625 34.515625 25.09375 
Q 36.71875 21.625 36.71875 14.015625 
L 36.71875 1.90625 
Q 36.71875 -4.984375 38.8125 -7.125 
Q 40.921875 -9.28125 47.796875 -9.28125 
z
" id="DejaVuSans-123"/>
     <path d="M 17.921875 72.90625 
L 17.921875 45.796875 
L 9.625 45.796875 
L 9.625 72.90625 
z
M 36.375 72.90625 
L 36.375 45.796875 
L 28.078125 45.796875 
L 28.078125 72.90625 
z
" id="DejaVuSans-34"/>
     <path d="M 64.40625 67.28125 
L 64.40625 56.890625 
Q 59.421875 61.53125 53.78125 63.8125 
Q 48.140625 66.109375 41.796875 66.109375 
Q 29.296875 66.109375 22.65625 58.46875 
Q 16.015625 50.828125 16.015625 36.375 
Q 16.015625 21.96875 22.65625 14.328125 
Q 29.296875 6.6875 41.796875 6.6875 
Q 48.140625 6.6875 53.78125 8.984375 
Q 59.421875 11.28125 64.40625 15.921875 
L 64.40625 5.609375 
Q 59.234375 2.09375 53.4375 0.328125 
Q 47.65625 -1.421875 41.21875 -1.421875 
Q 24.65625 -1.421875 15.125 8.703125 
Q 5.609375 18.84375 5.609375 36.375 
Q 5.609375 53.953125 15.125 64.078125 
Q 24.65625 74.21875 41.21875 74.21875 
Q 47.75 74.21875 53.53125 72.484375 
Q 59.328125 70.75 64.40625 67.28125 
z
" id="DejaVuSans-67"/>
     <path d="M 8.296875 72.90625 
L 33.6875 -9.28125 
L 25.390625 -9.28125 
L 0 72.90625 
z
" id="DejaVuSans-92"/>
     <path d="M 8.6875 72.90625 
L 18.609375 72.90625 
L 18.609375 28.609375 
Q 18.609375 16.890625 22.84375 11.734375 
Q 27.09375 6.59375 36.625 6.59375 
Q 46.09375 6.59375 50.34375 11.734375 
Q 54.59375 16.890625 54.59375 28.609375 
L 54.59375 72.90625 
L 64.5 72.90625 
L 64.5 27.390625 
Q 64.5 13.140625 57.4375 5.859375 
Q 50.390625 -1.421875 36.625 -1.421875 
Q 22.796875 -1.421875 15.734375 5.859375 
Q 8.6875 13.140625 8.6875 27.390625 
z
" id="DejaVuSans-85"/>
     <path d="M 44.28125 53.078125 
L 44.28125 44.578125 
Q 40.484375 46.53125 36.375 47.5 
Q 32.28125 48.484375 27.875 48.484375 
Q 21.1875 48.484375 17.84375 46.4375 
Q 14.5 44.390625 14.5 40.28125 
Q 14.5 37.15625 16.890625 35.375 
Q 19.28125 33.59375 26.515625 31.984375 
L 29.59375 31.296875 
Q 39.15625 29.25 43.1875 25.515625 
Q 47.21875 21.78125 47.21875 15.09375 
Q 47.21875 7.46875 41.1875 3.015625 
Q 35.15625 -1.421875 24.609375 -1.421875 
Q 20.21875 -1.421875 15.453125 -0.5625 
Q 10.6875 0.296875 5.421875 2 
L 5.421875 11.28125 
Q 10.40625 8.6875 15.234375 7.390625 
Q 20.0625 6.109375 24.8125 6.109375 
Q 31.15625 6.109375 34.5625 8.28125 
Q 37.984375 10.453125 37.984375 14.40625 
Q 37.984375 18.0625 35.515625 20.015625 
Q 33.0625 21.96875 24.703125 23.78125 
L 21.578125 24.515625 
Q 13.234375 26.265625 9.515625 29.90625 
Q 5.8125 33.546875 5.8125 39.890625 
Q 5.8125 47.609375 11.28125 51.796875 
Q 16.75 56 26.8125 56 
Q 31.78125 56 36.171875 55.265625 
Q 40.578125 54.546875 44.28125 53.078125 
z
" id="DejaVuSans-115"/>
     <path d="M 56.203125 29.59375 
L 56.203125 25.203125 
L 14.890625 25.203125 
Q 15.484375 15.921875 20.484375 11.0625 
Q 25.484375 6.203125 34.421875 6.203125 
Q 39.59375 6.203125 44.453125 7.46875 
Q 49.3125 8.734375 54.109375 11.28125 
L 54.109375 2.78125 
Q 49.265625 0.734375 44.1875 -0.34375 
Q 39.109375 -1.421875 33.890625 -1.421875 
Q 20.796875 -1.421875 13.15625 6.1875 
Q 5.515625 13.8125 5.515625 26.8125 
Q 5.515625 40.234375 12.765625 48.109375 
Q 20.015625 56 32.328125 56 
Q 43.359375 56 49.78125 48.890625 
Q 56.203125 41.796875 56.203125 29.59375 
z
M 47.21875 32.234375 
Q 47.125 39.59375 43.09375 43.984375 
Q 39.0625 48.390625 32.421875 48.390625 
Q 24.90625 48.390625 20.390625 44.140625 
Q 15.875 39.890625 15.1875 32.171875 
z
" id="DejaVuSans-101"/>
     <path d="M 41.109375 46.296875 
Q 39.59375 47.171875 37.8125 47.578125 
Q 36.03125 48 33.890625 48 
Q 26.265625 48 22.1875 43.046875 
Q 18.109375 38.09375 18.109375 28.8125 
L 18.109375 0 
L 9.078125 0 
L 9.078125 54.6875 
L 18.109375 54.6875 
L 18.109375 46.1875 
Q 20.953125 51.171875 25.484375 53.578125 
Q 30.03125 56 36.53125 56 
Q 37.453125 56 38.578125 55.875 
Q 39.703125 55.765625 41.0625 55.515625 
z
" id="DejaVuSans-114"/>
     <path d="M 37.109375 75.984375 
L 37.109375 68.5 
L 28.515625 68.5 
Q 23.6875 68.5 21.796875 66.546875 
Q 19.921875 64.59375 19.921875 59.515625 
L 19.921875 54.6875 
L 34.71875 54.6875 
L 34.71875 47.703125 
L 19.921875 47.703125 
L 19.921875 0 
L 10.890625 0 
L 10.890625 47.703125 
L 2.296875 47.703125 
L 2.296875 54.6875 
L 10.890625 54.6875 
L 10.890625 58.5 
Q 10.890625 67.625 15.140625 71.796875 
Q 19.390625 75.984375 28.609375 75.984375 
z
" id="DejaVuSans-102"/>
     <path d="M 34.28125 27.484375 
Q 23.390625 27.484375 19.1875 25 
Q 14.984375 22.515625 14.984375 16.5 
Q 14.984375 11.71875 18.140625 8.90625 
Q 21.296875 6.109375 26.703125 6.109375 
Q 34.1875 6.109375 38.703125 11.40625 
Q 43.21875 16.703125 43.21875 25.484375 
L 43.21875 27.484375 
z
M 52.203125 31.203125 
L 52.203125 0 
L 43.21875 0 
L 43.21875 8.296875 
Q 40.140625 3.328125 35.546875 0.953125 
Q 30.953125 -1.421875 24.3125 -1.421875 
Q 15.921875 -1.421875 10.953125 3.296875 
Q 6 8.015625 6 15.921875 
Q 6 25.140625 12.171875 29.828125 
Q 18.359375 34.515625 30.609375 34.515625 
L 43.21875 34.515625 
L 43.21875 35.40625 
Q 43.21875 41.609375 39.140625 45 
Q 35.0625 48.390625 27.6875 48.390625 
Q 23 48.390625 18.546875 47.265625 
Q 14.109375 46.140625 10.015625 43.890625 
L 10.015625 52.203125 
Q 14.9375 54.109375 19.578125 55.046875 
Q 24.21875 56 28.609375 56 
Q 40.484375 56 46.34375 49.84375 
Q 52.203125 43.703125 52.203125 31.203125 
z
" id="DejaVuSans-97"/>
     <path d="M 54.890625 33.015625 
L 54.890625 0 
L 45.90625 0 
L 45.90625 32.71875 
Q 45.90625 40.484375 42.875 44.328125 
Q 39.84375 48.1875 33.796875 48.1875 
Q 26.515625 48.1875 22.3125 43.546875 
Q 18.109375 38.921875 18.109375 30.90625 
L 18.109375 0 
L 9.078125 0 
L 9.078125 54.6875 
L 18.109375 54.6875 
L 18.109375 46.1875 
Q 21.34375 51.125 25.703125 53.5625 
Q 30.078125 56 35.796875 56 
Q 45.21875 56 50.046875 50.171875 
Q 54.890625 44.34375 54.890625 33.015625 
z
" id="DejaVuSans-110"/>
     <path d="M 30.609375 48.390625 
Q 23.390625 48.390625 19.1875 42.75 
Q 14.984375 37.109375 14.984375 27.296875 
Q 14.984375 17.484375 19.15625 11.84375 
Q 23.34375 6.203125 30.609375 6.203125 
Q 37.796875 6.203125 41.984375 11.859375 
Q 46.1875 17.53125 46.1875 27.296875 
Q 46.1875 37.015625 41.984375 42.703125 
Q 37.796875 48.390625 30.609375 48.390625 
z
M 30.609375 56 
Q 42.328125 56 49.015625 48.375 
Q 55.71875 40.765625 55.71875 27.296875 
Q 55.71875 13.875 49.015625 6.21875 
Q 42.328125 -1.421875 30.609375 -1.421875 
Q 18.84375 -1.421875 12.171875 6.21875 
Q 5.515625 13.875 5.515625 27.296875 
Q 5.515625 40.765625 12.171875 48.375 
Q 18.84375 56 30.609375 56 
z
" id="DejaVuSans-111"/>
     <path d="M 48.78125 52.59375 
L 48.78125 44.1875 
Q 44.96875 46.296875 41.140625 47.34375 
Q 37.3125 48.390625 33.40625 48.390625 
Q 24.65625 48.390625 19.8125 42.84375 
Q 14.984375 37.3125 14.984375 27.296875 
Q 14.984375 17.28125 19.8125 11.734375 
Q 24.65625 6.203125 33.40625 6.203125 
Q 37.3125 6.203125 41.140625 7.25 
Q 44.96875 8.296875 48.78125 10.40625 
L 48.78125 2.09375 
Q 45.015625 0.34375 40.984375 -0.53125 
Q 36.96875 -1.421875 32.421875 -1.421875 
Q 20.0625 -1.421875 12.78125 6.34375 
Q 5.515625 14.109375 5.515625 27.296875 
Q 5.515625 40.671875 12.859375 48.328125 
Q 20.21875 56 33.015625 56 
Q 37.15625 56 41.109375 55.140625 
Q 45.0625 54.296875 48.78125 52.59375 
z
" id="DejaVuSans-99"/>
     <path d="M 8.5 21.578125 
L 8.5 54.6875 
L 17.484375 54.6875 
L 17.484375 21.921875 
Q 17.484375 14.15625 20.5 10.265625 
Q 23.53125 6.390625 29.59375 6.390625 
Q 36.859375 6.390625 41.078125 11.03125 
Q 45.3125 15.671875 45.3125 23.6875 
L 45.3125 54.6875 
L 54.296875 54.6875 
L 54.296875 0 
L 45.3125 0 
L 45.3125 8.40625 
Q 42.046875 3.421875 37.71875 1 
Q 33.40625 -1.421875 27.6875 -1.421875 
Q 18.265625 -1.421875 13.375 4.4375 
Q 8.5 10.296875 8.5 21.578125 
z
M 31.109375 56 
z
" id="DejaVuSans-117"/>
     <path d="M 52 44.1875 
Q 55.375 50.25 60.0625 53.125 
Q 64.75 56 71.09375 56 
Q 79.640625 56 84.28125 50.015625 
Q 88.921875 44.046875 88.921875 33.015625 
L 88.921875 0 
L 79.890625 0 
L 79.890625 32.71875 
Q 79.890625 40.578125 77.09375 44.375 
Q 74.3125 48.1875 68.609375 48.1875 
Q 61.625 48.1875 57.5625 43.546875 
Q 53.515625 38.921875 53.515625 30.90625 
L 53.515625 0 
L 44.484375 0 
L 44.484375 32.71875 
Q 44.484375 40.625 41.703125 44.40625 
Q 38.921875 48.1875 33.109375 48.1875 
Q 26.21875 48.1875 22.15625 43.53125 
Q 18.109375 38.875 18.109375 30.90625 
L 18.109375 0 
L 9.078125 0 
L 9.078125 54.6875 
L 18.109375 54.6875 
L 18.109375 46.1875 
Q 21.1875 51.21875 25.484375 53.609375 
Q 29.78125 56 35.6875 56 
Q 41.65625 56 45.828125 52.96875 
Q 50 49.953125 52 44.1875 
z
" id="DejaVuSans-109"/>
     <path d="M 18.3125 70.21875 
L 18.3125 54.6875 
L 36.8125 54.6875 
L 36.8125 47.703125 
L 18.3125 47.703125 
L 18.3125 18.015625 
Q 18.3125 11.328125 20.140625 9.421875 
Q 21.96875 7.515625 27.59375 7.515625 
L 36.8125 7.515625 
L 36.8125 0 
L 27.59375 0 
Q 17.1875 0 13.234375 3.875 
Q 9.28125 7.765625 9.28125 18.015625 
L 9.28125 47.703125 
L 2.6875 47.703125 
L 2.6875 54.6875 
L 9.28125 54.6875 
L 9.28125 70.21875 
z
" id="DejaVuSans-116"/>
     <path d="M 18.109375 8.203125 
L 18.109375 -20.796875 
L 9.078125 -20.796875 
L 9.078125 54.6875 
L 18.109375 54.6875 
L 18.109375 46.390625 
Q 20.953125 51.265625 25.265625 53.625 
Q 29.59375 56 35.59375 56 
Q 45.5625 56 51.78125 48.09375 
Q 58.015625 40.1875 58.015625 27.296875 
Q 58.015625 14.40625 51.78125 6.484375 
Q 45.5625 -1.421875 35.59375 -1.421875 
Q 29.59375 -1.421875 25.265625 0.953125 
Q 20.953125 3.328125 18.109375 8.203125 
z
M 48.6875 27.296875 
Q 48.6875 37.203125 44.609375 42.84375 
Q 40.53125 48.484375 33.40625 48.484375 
Q 26.265625 48.484375 22.1875 42.84375 
Q 18.109375 37.203125 18.109375 27.296875 
Q 18.109375 17.390625 22.1875 11.75 
Q 26.265625 6.109375 33.40625 6.109375 
Q 40.53125 6.109375 44.609375 11.75 
Q 48.6875 17.390625 48.6875 27.296875 
z
" id="DejaVuSans-112"/>
     <path d="M 48.6875 27.296875 
Q 48.6875 37.203125 44.609375 42.84375 
Q 40.53125 48.484375 33.40625 48.484375 
Q 26.265625 48.484375 22.1875 42.84375 
Q 18.109375 37.203125 18.109375 27.296875 
Q 18.109375 17.390625 22.1875 11.75 
Q 26.265625 6.109375 33.40625 6.109375 
Q 40.53125 6.109375 44.609375 11.75 
Q 48.6875 17.390625 48.6875 27.296875 
z
M 18.109375 46.390625 
Q 20.953125 51.265625 25.265625 53.625 
Q 29.59375 56 35.59375 56 
Q 45.5625 56 51.78125 48.09375 
Q 58.015625 40.1875 58.015625 27.296875 
Q 58.015625 14.40625 51.78125 6.484375 
Q 45.5625 -1.421875 35.59375 -1.421875 
Q 29.59375 -1.421875 25.265625 0.953125 
Q 20.953125 3.328125 18.109375 8.203125 
L 18.109375 0 
L 9.078125 0 
L 9.078125 75.984375 
L 18.109375 75.984375 
z
" id="DejaVuSans-98"/>
     <path d="M 54.890625 54.6875 
L 35.109375 28.078125 
L 55.90625 0 
L 45.3125 0 
L 29.390625 21.484375 
L 13.484375 0 
L 2.875 0 
L 24.125 28.609375 
L 4.6875 54.6875 
L 15.28125 54.6875 
L 29.78125 35.203125 
L 44.28125 54.6875 
z
" id="DejaVuSans-120"/>
     <path d="M 31 75.875 
Q 24.46875 64.65625 21.28125 53.65625 
Q 18.109375 42.671875 18.109375 31.390625 
Q 18.109375 20.125 21.3125 9.0625 
Q 24.515625 -2 31 -13.1875 
L 23.1875 -13.1875 
Q 15.875 -1.703125 12.234375 9.375 
Q 8.59375 20.453125 8.59375 31.390625 
Q 8.59375 42.28125 12.203125 53.3125 
Q 15.828125 64.359375 23.1875 75.875 
z
" id="DejaVuSans-40"/>
     <path d="M 9.8125 72.90625 
L 19.671875 72.90625 
L 19.671875 43.015625 
L 55.515625 43.015625 
L 55.515625 72.90625 
L 65.375 72.90625 
L 65.375 0 
L 55.515625 0 
L 55.515625 34.71875 
L 19.671875 34.71875 
L 19.671875 0 
L 9.8125 0 
z
" id="DejaVuSans-72"/>
     <path d="M 4.890625 31.390625 
L 31.203125 31.390625 
L 31.203125 23.390625 
L 4.890625 23.390625 
z
" id="DejaVuSans-45"/>
    </defs>
    <g transform="translate(84.315781 114.904625)scale(0.14 -0.14)">
     <use xlink:href="#DejaVuSans-123"/>
     <use x="63.623047" xlink:href="#DejaVuSans-34"/>
     <use x="109.619141" xlink:href="#DejaVuSans-67"/>
     <use x="179.443359" xlink:href="#DejaVuSans-58"/>
     <use x="213.134766" xlink:href="#DejaVuSans-92"/>
     <use x="246.826172" xlink:href="#DejaVuSans-92"/>
     <use x="280.517578" xlink:href="#DejaVuSans-85"/>
     <use x="353.710938" xlink:href="#DejaVuSans-115"/>
     <use x="405.810547" xlink:href="#DejaVuSans-101"/>
     <use x="467.333984" xlink:href="#DejaVuSans-114"/>
     <use x="508.447266" xlink:href="#DejaVuSans-115"/>
     <use x="560.546875" xlink:href="#DejaVuSans-92"/>
     <use x="594.238281" xlink:href="#DejaVuSans-92"/>
     <use x="627.929688" xlink:href="#DejaVuSans-102"/>
     <use x="663.134766" xlink:href="#DejaVuSans-97"/>
     <use x="724.414062" xlink:href="#DejaVuSans-110"/>
     <use x="787.792969" xlink:href="#DejaVuSans-92"/>
     <use x="821.484375" xlink:href="#DejaVuSans-92"/>
     <use x="855.175781" xlink:href="#DejaVuSans-68"/>
     <use x="932.177734" xlink:href="#DejaVuSans-111"/>
     <use x="993.359375" xlink:href="#DejaVuSans-99"/>
     <use x="1048.339844" xlink:href="#DejaVuSans-117"/>
     <use x="1111.71875" xlink:href="#DejaVuSans-109"/>
     <use x="1209.130859" xlink:href="#DejaVuSans-101"/>
     <use x="1270.654297" xlink:href="#DejaVuSans-110"/>
     <use x="1334.033203" xlink:href="#DejaVuSans-116"/>
     <use x="1373.242188" xlink:href="#DejaVuSans-115"/>
     <use x="1425.341797" xlink:href="#DejaVuSans-92"/>
     <use x="1459.033203" xlink:href="#DejaVuSans-92"/>
     <use x="1492.724609" xlink:href="#DejaVuSans-68"/>
     <use x="1569.726562" xlink:href="#DejaVuSans-114"/>
     <use x="1608.589844" xlink:href="#DejaVuSans-111"/>
     <use x="1669.771484" xlink:href="#DejaVuSans-112"/>
     <use x="1733.248047" xlink:href="#DejaVuSans-98"/>
     <use x="1796.724609" xlink:href="#DejaVuSans-111"/>
     <use x="1854.78125" xlink:href="#DejaVuSans-120"/>
     <use x="1913.960938" xlink:href="#DejaVuSans-32"/>
     <use x="1945.748047" xlink:href="#DejaVuSans-40"/>
     <use x="1984.761719" xlink:href="#DejaVuSans-85"/>
     <use x="2057.955078" xlink:href="#DejaVuSans-72"/>
     <use x="2133.150391" xlink:href="#DejaVuSans-45"/>
    </g>
    <!-- ECON)\\repos\\Tex4Econ\\_other\\equation\\cases.tex": -->
    <defs>
     <path d="M 8.015625 75.875 
L 15.828125 75.875 
Q 23.140625 64.359375 26.78125 53.3125 
Q 30.421875 42.28125 30.421875 31.390625 
Q 30.421875 20.453125 26.78125 9.375 
Q 23.140625 -1.703125 15.828125 -13.1875 
L 8.015625 -13.1875 
Q 14.5 -2 17.703125 9.0625 
Q 20.90625 20.125 20.90625 31.390625 
Q 20.90625 42.671875 17.703125 53.65625 
Q 14.5 64.65625 8.015625 75.875 
z
" id="DejaVuSans-41"/>
     <path d="M 37.796875 64.3125 
L 12.890625 25.390625 
L 37.796875 25.390625 
z
M 35.203125 72.90625 
L 47.609375 72.90625 
L 47.609375 25.390625 
L 58.015625 25.390625 
L 58.015625 17.1875 
L 47.609375 17.1875 
L 47.609375 0 
L 37.796875 0 
L 37.796875 17.1875 
L 4.890625 17.1875 
L 4.890625 26.703125 
z
" id="DejaVuSans-52"/>
     <path d="M 50.984375 -16.609375 
L 50.984375 -23.578125 
L -0.984375 -23.578125 
L -0.984375 -16.609375 
z
" id="DejaVuSans-95"/>
     <path d="M 54.890625 33.015625 
L 54.890625 0 
L 45.90625 0 
L 45.90625 32.71875 
Q 45.90625 40.484375 42.875 44.328125 
Q 39.84375 48.1875 33.796875 48.1875 
Q 26.515625 48.1875 22.3125 43.546875 
Q 18.109375 38.921875 18.109375 30.90625 
L 18.109375 0 
L 9.078125 0 
L 9.078125 75.984375 
L 18.109375 75.984375 
L 18.109375 46.1875 
Q 21.34375 51.125 25.703125 53.5625 
Q 30.078125 56 35.796875 56 
Q 45.21875 56 50.046875 50.171875 
Q 54.890625 44.34375 54.890625 33.015625 
z
" id="DejaVuSans-104"/>
     <path d="M 14.796875 27.296875 
Q 14.796875 17.390625 18.875 11.75 
Q 22.953125 6.109375 30.078125 6.109375 
Q 37.203125 6.109375 41.296875 11.75 
Q 45.40625 17.390625 45.40625 27.296875 
Q 45.40625 37.203125 41.296875 42.84375 
Q 37.203125 48.484375 30.078125 48.484375 
Q 22.953125 48.484375 18.875 42.84375 
Q 14.796875 37.203125 14.796875 27.296875 
z
M 45.40625 8.203125 
Q 42.578125 3.328125 38.25 0.953125 
Q 33.9375 -1.421875 27.875 -1.421875 
Q 17.96875 -1.421875 11.734375 6.484375 
Q 5.515625 14.40625 5.515625 27.296875 
Q 5.515625 40.1875 11.734375 48.09375 
Q 17.96875 56 27.875 56 
Q 33.9375 56 38.25 53.625 
Q 42.578125 51.265625 45.40625 46.390625 
L 45.40625 54.6875 
L 54.390625 54.6875 
L 54.390625 -20.796875 
L 45.40625 -20.796875 
z
" id="DejaVuSans-113"/>
     <path d="M 9.421875 54.6875 
L 18.40625 54.6875 
L 18.40625 0 
L 9.421875 0 
z
M 9.421875 75.984375 
L 18.40625 75.984375 
L 18.40625 64.59375 
L 9.421875 64.59375 
z
" id="DejaVuSans-105"/>
     <path d="M 10.6875 12.40625 
L 21 12.40625 
L 21 0 
L 10.6875 0 
z
" id="DejaVuSans-46"/>
    </defs>
    <g transform="translate(45.8825 130.581562)scale(0.14 -0.14)">
     <use xlink:href="#DejaVuSans-69"/>
     <use x="63.183594" xlink:href="#DejaVuSans-67"/>
     <use x="133.007812" xlink:href="#DejaVuSans-79"/>
     <use x="211.71875" xlink:href="#DejaVuSans-78"/>
     <use x="286.523438" xlink:href="#DejaVuSans-41"/>
     <use x="325.537109" xlink:href="#DejaVuSans-92"/>
     <use x="359.228516" xlink:href="#DejaVuSans-92"/>
     <use x="392.919922" xlink:href="#DejaVuSans-114"/>
     <use x="431.783203" xlink:href="#DejaVuSans-101"/>
     <use x="493.306641" xlink:href="#DejaVuSans-112"/>
     <use x="556.783203" xlink:href="#DejaVuSans-111"/>
     <use x="617.964844" xlink:href="#DejaVuSans-115"/>
     <use x="670.064453" xlink:href="#DejaVuSans-92"/>
     <use x="703.755859" xlink:href="#DejaVuSans-92"/>
     <use x="737.447266" xlink:href="#DejaVuSans-84"/>
     <use x="781.53125" xlink:href="#DejaVuSans-101"/>
     <use x="841.304688" xlink:href="#DejaVuSans-120"/>
     <use x="900.484375" xlink:href="#DejaVuSans-52"/>
     <use x="964.107422" xlink:href="#DejaVuSans-69"/>
     <use x="1027.291016" xlink:href="#DejaVuSans-99"/>
     <use x="1082.271484" xlink:href="#DejaVuSans-111"/>
     <use x="1143.453125" xlink:href="#DejaVuSans-110"/>
     <use x="1206.832031" xlink:href="#DejaVuSans-92"/>
     <use x="1240.523438" xlink:href="#DejaVuSans-92"/>
     <use x="1274.214844" xlink:href="#DejaVuSans-95"/>
     <use x="1324.214844" xlink:href="#DejaVuSans-111"/>
     <use x="1385.396484" xlink:href="#DejaVuSans-116"/>
     <use x="1424.605469" xlink:href="#DejaVuSans-104"/>
     <use x="1487.984375" xlink:href="#DejaVuSans-101"/>
     <use x="1549.507812" xlink:href="#DejaVuSans-114"/>
     <use x="1590.621094" xlink:href="#DejaVuSans-92"/>
     <use x="1624.3125" xlink:href="#DejaVuSans-92"/>
     <use x="1658.003906" xlink:href="#DejaVuSans-101"/>
     <use x="1719.527344" xlink:href="#DejaVuSans-113"/>
     <use x="1783.003906" xlink:href="#DejaVuSans-117"/>
     <use x="1846.382812" xlink:href="#DejaVuSans-97"/>
     <use x="1907.662109" xlink:href="#DejaVuSans-116"/>
     <use x="1946.871094" xlink:href="#DejaVuSans-105"/>
     <use x="1974.654297" xlink:href="#DejaVuSans-111"/>
     <use x="2035.835938" xlink:href="#DejaVuSans-110"/>
     <use x="2099.214844" xlink:href="#DejaVuSans-92"/>
     <use x="2132.90625" xlink:href="#DejaVuSans-92"/>
     <use x="2166.597656" xlink:href="#DejaVuSans-99"/>
     <use x="2221.578125" xlink:href="#DejaVuSans-97"/>
     <use x="2282.857422" xlink:href="#DejaVuSans-115"/>
     <use x="2334.957031" xlink:href="#DejaVuSans-101"/>
     <use x="2396.480469" xlink:href="#DejaVuSans-115"/>
     <use x="2448.580078" xlink:href="#DejaVuSans-46"/>
     <use x="2480.367188" xlink:href="#DejaVuSans-116"/>
     <use x="2519.576172" xlink:href="#DejaVuSans-101"/>
     <use x="2579.349609" xlink:href="#DejaVuSans-120"/>
     <use x="2638.529297" xlink:href="#DejaVuSans-34"/>
     <use x="2684.525391" xlink:href="#DejaVuSans-58"/>
    </g>
    <!-- "C:/Users/fan/Documents/cases.pdf"} -->
    <defs>
     <path d="M 25.390625 72.90625 
L 33.6875 72.90625 
L 8.296875 -9.28125 
L 0 -9.28125 
z
" id="DejaVuSans-47"/>
     <path d="M 45.40625 46.390625 
L 45.40625 75.984375 
L 54.390625 75.984375 
L 54.390625 0 
L 45.40625 0 
L 45.40625 8.203125 
Q 42.578125 3.328125 38.25 0.953125 
Q 33.9375 -1.421875 27.875 -1.421875 
Q 17.96875 -1.421875 11.734375 6.484375 
Q 5.515625 14.40625 5.515625 27.296875 
Q 5.515625 40.1875 11.734375 48.09375 
Q 17.96875 56 27.875 56 
Q 33.9375 56 38.25 53.625 
Q 42.578125 51.265625 45.40625 46.390625 
z
M 14.796875 27.296875 
Q 14.796875 17.390625 18.875 11.75 
Q 22.953125 6.109375 30.078125 6.109375 
Q 37.203125 6.109375 41.296875 11.75 
Q 45.40625 17.390625 45.40625 27.296875 
Q 45.40625 37.203125 41.296875 42.84375 
Q 37.203125 48.484375 30.078125 48.484375 
Q 22.953125 48.484375 18.875 42.84375 
Q 14.796875 37.203125 14.796875 27.296875 
z
" id="DejaVuSans-100"/>
     <path d="M 12.5 -9.28125 
L 15.921875 -9.28125 
Q 22.75 -9.28125 24.828125 -7.171875 
Q 26.90625 -5.078125 26.90625 1.90625 
L 26.90625 14.015625 
Q 26.90625 21.625 29.09375 25.09375 
Q 31.296875 28.5625 36.71875 29.890625 
Q 31.296875 31.109375 29.09375 34.5625 
Q 26.90625 38.03125 26.90625 45.703125 
L 26.90625 57.8125 
Q 26.90625 64.75 24.828125 66.875 
Q 22.75 69 15.921875 69 
L 12.5 69 
L 12.5 75.984375 
L 15.578125 75.984375 
Q 27.734375 75.984375 31.8125 72.390625 
Q 35.890625 68.796875 35.890625 58.015625 
L 35.890625 46.296875 
Q 35.890625 39.015625 38.515625 36.203125 
Q 41.15625 33.40625 48.09375 33.40625 
L 51.125 33.40625 
L 51.125 26.421875 
L 48.09375 26.421875 
Q 41.15625 26.421875 38.515625 23.578125 
Q 35.890625 20.75 35.890625 13.375 
L 35.890625 1.703125 
Q 35.890625 -9.078125 31.8125 -12.6875 
Q 27.734375 -16.3125 15.578125 -16.3125 
L 12.5 -16.3125 
z
" id="DejaVuSans-125"/>
    </defs>
    <g transform="translate(104.569844 146.647875)scale(0.14 -0.14)">
     <use xlink:href="#DejaVuSans-34"/>
     <use x="45.996094" xlink:href="#DejaVuSans-67"/>
     <use x="115.820312" xlink:href="#DejaVuSans-58"/>
     <use x="149.511719" xlink:href="#DejaVuSans-47"/>
     <use x="183.203125" xlink:href="#DejaVuSans-85"/>
     <use x="256.396484" xlink:href="#DejaVuSans-115"/>
     <use x="308.496094" xlink:href="#DejaVuSans-101"/>
     <use x="370.019531" xlink:href="#DejaVuSans-114"/>
     <use x="411.132812" xlink:href="#DejaVuSans-115"/>
     <use x="463.232422" xlink:href="#DejaVuSans-47"/>
     <use x="496.923828" xlink:href="#DejaVuSans-102"/>
     <use x="532.128906" xlink:href="#DejaVuSans-97"/>
     <use x="593.408203" xlink:href="#DejaVuSans-110"/>
     <use x="656.787109" xlink:href="#DejaVuSans-47"/>
     <use x="690.478516" xlink:href="#DejaVuSans-68"/>
     <use x="767.480469" xlink:href="#DejaVuSans-111"/>
     <use x="828.662109" xlink:href="#DejaVuSans-99"/>
     <use x="883.642578" xlink:href="#DejaVuSans-117"/>
     <use x="947.021484" xlink:href="#DejaVuSans-109"/>
     <use x="1044.433594" xlink:href="#DejaVuSans-101"/>
     <use x="1105.957031" xlink:href="#DejaVuSans-110"/>
     <use x="1169.335938" xlink:href="#DejaVuSans-116"/>
     <use x="1208.544922" xlink:href="#DejaVuSans-115"/>
     <use x="1260.644531" xlink:href="#DejaVuSans-47"/>
     <use x="1294.335938" xlink:href="#DejaVuSans-99"/>
     <use x="1349.316406" xlink:href="#DejaVuSans-97"/>
     <use x="1410.595703" xlink:href="#DejaVuSans-115"/>
     <use x="1462.695312" xlink:href="#DejaVuSans-101"/>
     <use x="1524.21875" xlink:href="#DejaVuSans-115"/>
     <use x="1576.318359" xlink:href="#DejaVuSans-46"/>
     <use x="1608.105469" xlink:href="#DejaVuSans-112"/>
     <use x="1671.582031" xlink:href="#DejaVuSans-100"/>
     <use x="1735.058594" xlink:href="#DejaVuSans-102"/>
     <use x="1770.263672" xlink:href="#DejaVuSans-34"/>
     <use x="1816.259766" xlink:href="#DejaVuSans-125"/>
    </g>
    <!-- RECURSIVE SEARCH TEX TO PDF FOLDER: -->
    <defs>
     <path d="M 53.515625 70.515625 
L 53.515625 60.890625 
Q 47.90625 63.578125 42.921875 64.890625 
Q 37.9375 66.21875 33.296875 66.21875 
Q 25.25 66.21875 20.875 63.09375 
Q 16.5 59.96875 16.5 54.203125 
Q 16.5 49.359375 19.40625 46.890625 
Q 22.3125 44.4375 30.421875 42.921875 
L 36.375 41.703125 
Q 47.40625 39.59375 52.65625 34.296875 
Q 57.90625 29 57.90625 20.125 
Q 57.90625 9.515625 50.796875 4.046875 
Q 43.703125 -1.421875 29.984375 -1.421875 
Q 24.8125 -1.421875 18.96875 -0.25 
Q 13.140625 0.921875 6.890625 3.21875 
L 6.890625 13.375 
Q 12.890625 10.015625 18.65625 8.296875 
Q 24.421875 6.59375 29.984375 6.59375 
Q 38.421875 6.59375 43.015625 9.90625 
Q 47.609375 13.234375 47.609375 19.390625 
Q 47.609375 24.75 44.3125 27.78125 
Q 41.015625 30.8125 33.5 32.328125 
L 27.484375 33.5 
Q 16.453125 35.6875 11.515625 40.375 
Q 6.59375 45.0625 6.59375 53.421875 
Q 6.59375 63.09375 13.40625 68.65625 
Q 20.21875 74.21875 32.171875 74.21875 
Q 37.3125 74.21875 42.625 73.28125 
Q 47.953125 72.359375 53.515625 70.515625 
z
" id="DejaVuSans-83"/>
     <path d="M 9.8125 72.90625 
L 19.671875 72.90625 
L 19.671875 0 
L 9.8125 0 
z
" id="DejaVuSans-73"/>
     <path d="M 28.609375 0 
L 0.78125 72.90625 
L 11.078125 72.90625 
L 34.1875 11.53125 
L 57.328125 72.90625 
L 67.578125 72.90625 
L 39.796875 0 
z
" id="DejaVuSans-86"/>
     <path d="M 34.1875 63.1875 
L 20.796875 26.90625 
L 47.609375 26.90625 
z
M 28.609375 72.90625 
L 39.796875 72.90625 
L 67.578125 0 
L 57.328125 0 
L 50.6875 18.703125 
L 17.828125 18.703125 
L 11.1875 0 
L 0.78125 0 
z
" id="DejaVuSans-65"/>
     <path d="M 9.8125 72.90625 
L 19.671875 72.90625 
L 19.671875 8.296875 
L 55.171875 8.296875 
L 55.171875 0 
L 9.8125 0 
z
" id="DejaVuSans-76"/>
    </defs>
    <g transform="translate(89.663125 162.324812)scale(0.14 -0.14)">
     <use xlink:href="#DejaVuSans-82"/>
     <use x="69.482422" xlink:href="#DejaVuSans-69"/>
     <use x="132.666016" xlink:href="#DejaVuSans-67"/>
     <use x="202.490234" xlink:href="#DejaVuSans-85"/>
     <use x="275.683594" xlink:href="#DejaVuSans-82"/>
     <use x="345.166016" xlink:href="#DejaVuSans-83"/>
     <use x="408.642578" xlink:href="#DejaVuSans-73"/>
     <use x="438.134766" xlink:href="#DejaVuSans-86"/>
     <use x="506.542969" xlink:href="#DejaVuSans-69"/>
     <use x="569.726562" xlink:href="#DejaVuSans-32"/>
     <use x="601.513672" xlink:href="#DejaVuSans-83"/>
     <use x="664.990234" xlink:href="#DejaVuSans-69"/>
     <use x="728.173828" xlink:href="#DejaVuSans-65"/>
     <use x="796.582031" xlink:href="#DejaVuSans-82"/>
     <use x="861.064453" xlink:href="#DejaVuSans-67"/>
     <use x="930.888672" xlink:href="#DejaVuSans-72"/>
     <use x="1006.083984" xlink:href="#DejaVuSans-32"/>
     <use x="1037.871094" xlink:href="#DejaVuSans-84"/>
     <use x="1098.955078" xlink:href="#DejaVuSans-69"/>
     <use x="1162.138672" xlink:href="#DejaVuSans-88"/>
     <use x="1230.644531" xlink:href="#DejaVuSans-32"/>
     <use x="1262.431641" xlink:href="#DejaVuSans-84"/>
     <use x="1323.515625" xlink:href="#DejaVuSans-79"/>
     <use x="1402.226562" xlink:href="#DejaVuSans-32"/>
     <use x="1434.013672" xlink:href="#DejaVuSans-80"/>
     <use x="1494.316406" xlink:href="#DejaVuSans-68"/>
     <use x="1571.318359" xlink:href="#DejaVuSans-70"/>
     <use x="1628.837891" xlink:href="#DejaVuSans-32"/>
     <use x="1660.625" xlink:href="#DejaVuSans-70"/>
     <use x="1718.144531" xlink:href="#DejaVuSans-79"/>
     <use x="1796.855469" xlink:href="#DejaVuSans-76"/>
     <use x="1852.568359" xlink:href="#DejaVuSans-68"/>
     <use x="1929.570312" xlink:href="#DejaVuSans-69"/>
     <use x="1992.753906" xlink:href="#DejaVuSans-82"/>
     <use x="2059.111328" xlink:href="#DejaVuSans-58"/>
    </g>
    <!-- {"C:\\Users\\fan\\Documents\\Dropbox (UH- -->
    <g transform="translate(84.315781 178.00175)scale(0.14 -0.14)">
     <use xlink:href="#DejaVuSans-123"/>
     <use x="63.623047" xlink:href="#DejaVuSans-34"/>
     <use x="109.619141" xlink:href="#DejaVuSans-67"/>
     <use x="179.443359" xlink:href="#DejaVuSans-58"/>
     <use x="213.134766" xlink:href="#DejaVuSans-92"/>
     <use x="246.826172" xlink:href="#DejaVuSans-92"/>
     <use x="280.517578" xlink:href="#DejaVuSans-85"/>
     <use x="353.710938" xlink:href="#DejaVuSans-115"/>
     <use x="405.810547" xlink:href="#DejaVuSans-101"/>
     <use x="467.333984" xlink:href="#DejaVuSans-114"/>
     <use x="508.447266" xlink:href="#DejaVuSans-115"/>
     <use x="560.546875" xlink:href="#DejaVuSans-92"/>
     <use x="594.238281" xlink:href="#DejaVuSans-92"/>
     <use x="627.929688" xlink:href="#DejaVuSans-102"/>
     <use x="663.134766" xlink:href="#DejaVuSans-97"/>
     <use x="724.414062" xlink:href="#DejaVuSans-110"/>
     <use x="787.792969" xlink:href="#DejaVuSans-92"/>
     <use x="821.484375" xlink:href="#DejaVuSans-92"/>
     <use x="855.175781" xlink:href="#DejaVuSans-68"/>
     <use x="932.177734" xlink:href="#DejaVuSans-111"/>
     <use x="993.359375" xlink:href="#DejaVuSans-99"/>
     <use x="1048.339844" xlink:href="#DejaVuSans-117"/>
     <use x="1111.71875" xlink:href="#DejaVuSans-109"/>
     <use x="1209.130859" xlink:href="#DejaVuSans-101"/>
     <use x="1270.654297" xlink:href="#DejaVuSans-110"/>
     <use x="1334.033203" xlink:href="#DejaVuSans-116"/>
     <use x="1373.242188" xlink:href="#DejaVuSans-115"/>
     <use x="1425.341797" xlink:href="#DejaVuSans-92"/>
     <use x="1459.033203" xlink:href="#DejaVuSans-92"/>
     <use x="1492.724609" xlink:href="#DejaVuSans-68"/>
     <use x="1569.726562" xlink:href="#DejaVuSans-114"/>
     <use x="1608.589844" xlink:href="#DejaVuSans-111"/>
     <use x="1669.771484" xlink:href="#DejaVuSans-112"/>
     <use x="1733.248047" xlink:href="#DejaVuSans-98"/>
     <use x="1796.724609" xlink:href="#DejaVuSans-111"/>
     <use x="1854.78125" xlink:href="#DejaVuSans-120"/>
     <use x="1913.960938" xlink:href="#DejaVuSans-32"/>
     <use x="1945.748047" xlink:href="#DejaVuSans-40"/>
     <use x="1984.761719" xlink:href="#DejaVuSans-85"/>
     <use x="2057.955078" xlink:href="#DejaVuSans-72"/>
     <use x="2133.150391" xlink:href="#DejaVuSans-45"/>
    </g>
    <!-- ECON)\\repos\\Tex4Econ\\_other\\equation\\cases.tex": -->
    <g transform="translate(45.8825 193.678687)scale(0.14 -0.14)">
     <use xlink:href="#DejaVuSans-69"/>
     <use x="63.183594" xlink:href="#DejaVuSans-67"/>
     <use x="133.007812" xlink:href="#DejaVuSans-79"/>
     <use x="211.71875" xlink:href="#DejaVuSans-78"/>
     <use x="286.523438" xlink:href="#DejaVuSans-41"/>
     <use x="325.537109" xlink:href="#DejaVuSans-92"/>
     <use x="359.228516" xlink:href="#DejaVuSans-92"/>
     <use x="392.919922" xlink:href="#DejaVuSans-114"/>
     <use x="431.783203" xlink:href="#DejaVuSans-101"/>
     <use x="493.306641" xlink:href="#DejaVuSans-112"/>
     <use x="556.783203" xlink:href="#DejaVuSans-111"/>
     <use x="617.964844" xlink:href="#DejaVuSans-115"/>
     <use x="670.064453" xlink:href="#DejaVuSans-92"/>
     <use x="703.755859" xlink:href="#DejaVuSans-92"/>
     <use x="737.447266" xlink:href="#DejaVuSans-84"/>
     <use x="781.53125" xlink:href="#DejaVuSans-101"/>
     <use x="841.304688" xlink:href="#DejaVuSans-120"/>
     <use x="900.484375" xlink:href="#DejaVuSans-52"/>
     <use x="964.107422" xlink:href="#DejaVuSans-69"/>
     <use x="1027.291016" xlink:href="#DejaVuSans-99"/>
     <use x="1082.271484" xlink:href="#DejaVuSans-111"/>
     <use x="1143.453125" xlink:href="#DejaVuSans-110"/>
     <use x="1206.832031" xlink:href="#DejaVuSans-92"/>
     <use x="1240.523438" xlink:href="#DejaVuSans-92"/>
     <use x="1274.214844" xlink:href="#DejaVuSans-95"/>
     <use x="1324.214844" xlink:href="#DejaVuSans-111"/>
     <use x="1385.396484" xlink:href="#DejaVuSans-116"/>
     <use x="1424.605469" xlink:href="#DejaVuSans-104"/>
     <use x="1487.984375" xlink:href="#DejaVuSans-101"/>
     <use x="1549.507812" xlink:href="#DejaVuSans-114"/>
     <use x="1590.621094" xlink:href="#DejaVuSans-92"/>
     <use x="1624.3125" xlink:href="#DejaVuSans-92"/>
     <use x="1658.003906" xlink:href="#DejaVuSans-101"/>
     <use x="1719.527344" xlink:href="#DejaVuSans-113"/>
     <use x="1783.003906" xlink:href="#DejaVuSans-117"/>
     <use x="1846.382812" xlink:href="#DejaVuSans-97"/>
     <use x="1907.662109" xlink:href="#DejaVuSans-116"/>
     <use x="1946.871094" xlink:href="#DejaVuSans-105"/>
     <use x="1974.654297" xlink:href="#DejaVuSans-111"/>
     <use x="2035.835938" xlink:href="#DejaVuSans-110"/>
     <use x="2099.214844" xlink:href="#DejaVuSans-92"/>
     <use x="2132.90625" xlink:href="#DejaVuSans-92"/>
     <use x="2166.597656" xlink:href="#DejaVuSans-99"/>
     <use x="2221.578125" xlink:href="#DejaVuSans-97"/>
     <use x="2282.857422" xlink:href="#DejaVuSans-115"/>
     <use x="2334.957031" xlink:href="#DejaVuSans-101"/>
     <use x="2396.480469" xlink:href="#DejaVuSans-115"/>
     <use x="2448.580078" xlink:href="#DejaVuSans-46"/>
     <use x="2480.367188" xlink:href="#DejaVuSans-116"/>
     <use x="2519.576172" xlink:href="#DejaVuSans-101"/>
     <use x="2579.349609" xlink:href="#DejaVuSans-120"/>
     <use x="2638.529297" xlink:href="#DejaVuSans-34"/>
     <use x="2684.525391" xlink:href="#DejaVuSans-58"/>
    </g>
    <!-- "C:/Users/fan/Documents/cases.pdf", -->
    <defs>
     <path d="M 11.71875 12.40625 
L 22.015625 12.40625 
L 22.015625 4 
L 14.015625 -11.625 
L 7.71875 -11.625 
L 11.71875 4 
z
" id="DejaVuSans-44"/>
    </defs>
    <g transform="translate(106.798906 209.745)scale(0.14 -0.14)">
     <use xlink:href="#DejaVuSans-34"/>
     <use x="45.996094" xlink:href="#DejaVuSans-67"/>
     <use x="115.820312" xlink:href="#DejaVuSans-58"/>
     <use x="149.511719" xlink:href="#DejaVuSans-47"/>
     <use x="183.203125" xlink:href="#DejaVuSans-85"/>
     <use x="256.396484" xlink:href="#DejaVuSans-115"/>
     <use x="308.496094" xlink:href="#DejaVuSans-101"/>
     <use x="370.019531" xlink:href="#DejaVuSans-114"/>
     <use x="411.132812" xlink:href="#DejaVuSans-115"/>
     <use x="463.232422" xlink:href="#DejaVuSans-47"/>
     <use x="496.923828" xlink:href="#DejaVuSans-102"/>
     <use x="532.128906" xlink:href="#DejaVuSans-97"/>
     <use x="593.408203" xlink:href="#DejaVuSans-110"/>
     <use x="656.787109" xlink:href="#DejaVuSans-47"/>
     <use x="690.478516" xlink:href="#DejaVuSans-68"/>
     <use x="767.480469" xlink:href="#DejaVuSans-111"/>
     <use x="828.662109" xlink:href="#DejaVuSans-99"/>
     <use x="883.642578" xlink:href="#DejaVuSans-117"/>
     <use x="947.021484" xlink:href="#DejaVuSans-109"/>
     <use x="1044.433594" xlink:href="#DejaVuSans-101"/>
     <use x="1105.957031" xlink:href="#DejaVuSans-110"/>
     <use x="1169.335938" xlink:href="#DejaVuSans-116"/>
     <use x="1208.544922" xlink:href="#DejaVuSans-115"/>
     <use x="1260.644531" xlink:href="#DejaVuSans-47"/>
     <use x="1294.335938" xlink:href="#DejaVuSans-99"/>
     <use x="1349.316406" xlink:href="#DejaVuSans-97"/>
     <use x="1410.595703" xlink:href="#DejaVuSans-115"/>
     <use x="1462.695312" xlink:href="#DejaVuSans-101"/>
     <use x="1524.21875" xlink:href="#DejaVuSans-115"/>
     <use x="1576.318359" xlink:href="#DejaVuSans-46"/>
     <use x="1608.105469" xlink:href="#DejaVuSans-112"/>
     <use x="1671.582031" xlink:href="#DejaVuSans-100"/>
     <use x="1735.058594" xlink:href="#DejaVuSans-102"/>
     <use x="1770.263672" xlink:href="#DejaVuSans-34"/>
     <use x="1816.259766" xlink:href="#DejaVuSans-44"/>
    </g>
    <!-- "C:\\Users\\fan\\Documents\\Dropbox (UH- -->
    <g transform="translate(88.769531 225.421938)scale(0.14 -0.14)">
     <use xlink:href="#DejaVuSans-34"/>
     <use x="45.996094" xlink:href="#DejaVuSans-67"/>
     <use x="115.820312" xlink:href="#DejaVuSans-58"/>
     <use x="149.511719" xlink:href="#DejaVuSans-92"/>
     <use x="183.203125" xlink:href="#DejaVuSans-92"/>
     <use x="216.894531" xlink:href="#DejaVuSans-85"/>
     <use x="290.087891" xlink:href="#DejaVuSans-115"/>
     <use x="342.1875" xlink:href="#DejaVuSans-101"/>
     <use x="403.710938" xlink:href="#DejaVuSans-114"/>
     <use x="444.824219" xlink:href="#DejaVuSans-115"/>
     <use x="496.923828" xlink:href="#DejaVuSans-92"/>
     <use x="530.615234" xlink:href="#DejaVuSans-92"/>
     <use x="564.306641" xlink:href="#DejaVuSans-102"/>
     <use x="599.511719" xlink:href="#DejaVuSans-97"/>
     <use x="660.791016" xlink:href="#DejaVuSans-110"/>
     <use x="724.169922" xlink:href="#DejaVuSans-92"/>
     <use x="757.861328" xlink:href="#DejaVuSans-92"/>
     <use x="791.552734" xlink:href="#DejaVuSans-68"/>
     <use x="868.554688" xlink:href="#DejaVuSans-111"/>
     <use x="929.736328" xlink:href="#DejaVuSans-99"/>
     <use x="984.716797" xlink:href="#DejaVuSans-117"/>
     <use x="1048.095703" xlink:href="#DejaVuSans-109"/>
     <use x="1145.507812" xlink:href="#DejaVuSans-101"/>
     <use x="1207.03125" xlink:href="#DejaVuSans-110"/>
     <use x="1270.410156" xlink:href="#DejaVuSans-116"/>
     <use x="1309.619141" xlink:href="#DejaVuSans-115"/>
     <use x="1361.71875" xlink:href="#DejaVuSans-92"/>
     <use x="1395.410156" xlink:href="#DejaVuSans-92"/>
     <use x="1429.101562" xlink:href="#DejaVuSans-68"/>
     <use x="1506.103516" xlink:href="#DejaVuSans-114"/>
     <use x="1544.966797" xlink:href="#DejaVuSans-111"/>
     <use x="1606.148438" xlink:href="#DejaVuSans-112"/>
     <use x="1669.625" xlink:href="#DejaVuSans-98"/>
     <use x="1733.101562" xlink:href="#DejaVuSans-111"/>
     <use x="1791.158203" xlink:href="#DejaVuSans-120"/>
     <use x="1850.337891" xlink:href="#DejaVuSans-32"/>
     <use x="1882.125" xlink:href="#DejaVuSans-40"/>
     <use x="1921.138672" xlink:href="#DejaVuSans-85"/>
     <use x="1994.332031" xlink:href="#DejaVuSans-72"/>
     <use x="2069.527344" xlink:href="#DejaVuSans-45"/>
    </g>
    <!-- ECON)\\repos\\Tex4Econ\\_other\\symbols\\fs_symbols.tex": -->
    <defs>
     <path d="M 32.171875 -5.078125 
Q 28.375 -14.84375 24.75 -17.8125 
Q 21.140625 -20.796875 15.09375 -20.796875 
L 7.90625 -20.796875 
L 7.90625 -13.28125 
L 13.1875 -13.28125 
Q 16.890625 -13.28125 18.9375 -11.515625 
Q 21 -9.765625 23.484375 -3.21875 
L 25.09375 0.875 
L 2.984375 54.6875 
L 12.5 54.6875 
L 29.59375 11.921875 
L 46.6875 54.6875 
L 56.203125 54.6875 
z
" id="DejaVuSans-121"/>
     <path d="M 9.421875 75.984375 
L 18.40625 75.984375 
L 18.40625 0 
L 9.421875 0 
z
" id="DejaVuSans-108"/>
    </defs>
    <g transform="translate(29.043125 241.098875)scale(0.14 -0.14)">
     <use xlink:href="#DejaVuSans-69"/>
     <use x="63.183594" xlink:href="#DejaVuSans-67"/>
     <use x="133.007812" xlink:href="#DejaVuSans-79"/>
     <use x="211.71875" xlink:href="#DejaVuSans-78"/>
     <use x="286.523438" xlink:href="#DejaVuSans-41"/>
     <use x="325.537109" xlink:href="#DejaVuSans-92"/>
     <use x="359.228516" xlink:href="#DejaVuSans-92"/>
     <use x="392.919922" xlink:href="#DejaVuSans-114"/>
     <use x="431.783203" xlink:href="#DejaVuSans-101"/>
     <use x="493.306641" xlink:href="#DejaVuSans-112"/>
     <use x="556.783203" xlink:href="#DejaVuSans-111"/>
     <use x="617.964844" xlink:href="#DejaVuSans-115"/>
     <use x="670.064453" xlink:href="#DejaVuSans-92"/>
     <use x="703.755859" xlink:href="#DejaVuSans-92"/>
     <use x="737.447266" xlink:href="#DejaVuSans-84"/>
     <use x="781.53125" xlink:href="#DejaVuSans-101"/>
     <use x="841.304688" xlink:href="#DejaVuSans-120"/>
     <use x="900.484375" xlink:href="#DejaVuSans-52"/>
     <use x="964.107422" xlink:href="#DejaVuSans-69"/>
     <use x="1027.291016" xlink:href="#DejaVuSans-99"/>
     <use x="1082.271484" xlink:href="#DejaVuSans-111"/>
     <use x="1143.453125" xlink:href="#DejaVuSans-110"/>
     <use x="1206.832031" xlink:href="#DejaVuSans-92"/>
     <use x="1240.523438" xlink:href="#DejaVuSans-92"/>
     <use x="1274.214844" xlink:href="#DejaVuSans-95"/>
     <use x="1324.214844" xlink:href="#DejaVuSans-111"/>
     <use x="1385.396484" xlink:href="#DejaVuSans-116"/>
     <use x="1424.605469" xlink:href="#DejaVuSans-104"/>
     <use x="1487.984375" xlink:href="#DejaVuSans-101"/>
     <use x="1549.507812" xlink:href="#DejaVuSans-114"/>
     <use x="1590.621094" xlink:href="#DejaVuSans-92"/>
     <use x="1624.3125" xlink:href="#DejaVuSans-92"/>
     <use x="1658.003906" xlink:href="#DejaVuSans-115"/>
     <use x="1710.103516" xlink:href="#DejaVuSans-121"/>
     <use x="1769.283203" xlink:href="#DejaVuSans-109"/>
     <use x="1866.695312" xlink:href="#DejaVuSans-98"/>
     <use x="1930.171875" xlink:href="#DejaVuSans-111"/>
     <use x="1991.353516" xlink:href="#DejaVuSans-108"/>
     <use x="2019.136719" xlink:href="#DejaVuSans-115"/>
     <use x="2071.236328" xlink:href="#DejaVuSans-92"/>
     <use x="2104.927734" xlink:href="#DejaVuSans-92"/>
     <use x="2138.619141" xlink:href="#DejaVuSans-102"/>
     <use x="2173.824219" xlink:href="#DejaVuSans-115"/>
     <use x="2225.923828" xlink:href="#DejaVuSans-95"/>
     <use x="2275.923828" xlink:href="#DejaVuSans-115"/>
     <use x="2328.023438" xlink:href="#DejaVuSans-121"/>
     <use x="2387.203125" xlink:href="#DejaVuSans-109"/>
     <use x="2484.615234" xlink:href="#DejaVuSans-98"/>
     <use x="2548.091797" xlink:href="#DejaVuSans-111"/>
     <use x="2609.273438" xlink:href="#DejaVuSans-108"/>
     <use x="2637.056641" xlink:href="#DejaVuSans-115"/>
     <use x="2689.15625" xlink:href="#DejaVuSans-46"/>
     <use x="2720.943359" xlink:href="#DejaVuSans-116"/>
     <use x="2760.152344" xlink:href="#DejaVuSans-101"/>
     <use x="2819.925781" xlink:href="#DejaVuSans-120"/>
     <use x="2879.105469" xlink:href="#DejaVuSans-34"/>
     <use x="2925.101562" xlink:href="#DejaVuSans-58"/>
    </g>
    <!-- "C:/Users/fan/Documents/fs_symbols.pdf"} -->
    <g transform="translate(85.771562 257.165188)scale(0.14 -0.14)">
     <use xlink:href="#DejaVuSans-34"/>
     <use x="45.996094" xlink:href="#DejaVuSans-67"/>
     <use x="115.820312" xlink:href="#DejaVuSans-58"/>
     <use x="149.511719" xlink:href="#DejaVuSans-47"/>
     <use x="183.203125" xlink:href="#DejaVuSans-85"/>
     <use x="256.396484" xlink:href="#DejaVuSans-115"/>
     <use x="308.496094" xlink:href="#DejaVuSans-101"/>
     <use x="370.019531" xlink:href="#DejaVuSans-114"/>
     <use x="411.132812" xlink:href="#DejaVuSans-115"/>
     <use x="463.232422" xlink:href="#DejaVuSans-47"/>
     <use x="496.923828" xlink:href="#DejaVuSans-102"/>
     <use x="532.128906" xlink:href="#DejaVuSans-97"/>
     <use x="593.408203" xlink:href="#DejaVuSans-110"/>
     <use x="656.787109" xlink:href="#DejaVuSans-47"/>
     <use x="690.478516" xlink:href="#DejaVuSans-68"/>
     <use x="767.480469" xlink:href="#DejaVuSans-111"/>
     <use x="828.662109" xlink:href="#DejaVuSans-99"/>
     <use x="883.642578" xlink:href="#DejaVuSans-117"/>
     <use x="947.021484" xlink:href="#DejaVuSans-109"/>
     <use x="1044.433594" xlink:href="#DejaVuSans-101"/>
     <use x="1105.957031" xlink:href="#DejaVuSans-110"/>
     <use x="1169.335938" xlink:href="#DejaVuSans-116"/>
     <use x="1208.544922" xlink:href="#DejaVuSans-115"/>
     <use x="1260.644531" xlink:href="#DejaVuSans-47"/>
     <use x="1294.335938" xlink:href="#DejaVuSans-102"/>
     <use x="1329.541016" xlink:href="#DejaVuSans-115"/>
     <use x="1381.640625" xlink:href="#DejaVuSans-95"/>
     <use x="1431.640625" xlink:href="#DejaVuSans-115"/>
     <use x="1483.740234" xlink:href="#DejaVuSans-121"/>
     <use x="1542.919922" xlink:href="#DejaVuSans-109"/>
     <use x="1640.332031" xlink:href="#DejaVuSans-98"/>
     <use x="1703.808594" xlink:href="#DejaVuSans-111"/>
     <use x="1764.990234" xlink:href="#DejaVuSans-108"/>
     <use x="1792.773438" xlink:href="#DejaVuSans-115"/>
     <use x="1844.873047" xlink:href="#DejaVuSans-46"/>
     <use x="1876.660156" xlink:href="#DejaVuSans-112"/>
     <use x="1940.136719" xlink:href="#DejaVuSans-100"/>
     <use x="2003.613281" xlink:href="#DejaVuSans-102"/>
     <use x="2038.818359" xlink:href="#DejaVuSans-34"/>
     <use x="2084.814453" xlink:href="#DejaVuSans-125"/>
    </g>
   </g>
  </g>
 </g>
</svg>
