<?xml version="1.0" encoding="utf-8" standalone="no"?>
<!DOCTYPE svg PUBLIC "-//W3C//DTD SVG 1.1//EN"
  "http://www.w3.org/Graphics/SVG/1.1/DTD/svg11.dtd">
<!-- Created with matplotlib (https://matplotlib.org/) -->
<svg height="345.6pt" version="1.1" viewBox="0 0 460.8 345.6" width="460.8pt" xmlns="http://www.w3.org/2000/svg" xmlns:xlink="http://www.w3.org/1999/xlink">
 <metadata>
  <rdf:RDF xmlns:cc="http://creativecommons.org/ns#" xmlns:dc="http://purl.org/dc/elements/1.1/" xmlns:rdf="http://www.w3.org/1999/02/22-rdf-syntax-ns#">
   <cc:Work>
    <dc:type rdf:resource="http://purl.org/dc/dcmitype/StillImage"/>
    <dc:date>2020-11-28T16:23:35.660898</dc:date>
    <dc:format>image/svg+xml</dc:format>
    <dc:creator>
     <cc:Agent>
      <dc:title>Matplotlib v3.3.2, https://matplotlib.org/</dc:title>
     </cc:Agent>
    </dc:creator>
   </cc:Work>
  </rdf:RDF>
 </metadata>
 <defs>
  <style type="text/css">*{stroke-linecap:butt;stroke-linejoin:round;}</style>
 </defs>
 <g id="figure_1">
  <g id="patch_1">
   <path d="M 0 345.6 
L 460.8 345.6 
L 460.8 0 
L 0 0 
z
" style="fill:#ffffff;"/>
  </g>
  <g id="axes_1">
   <g id="patch_2">
    <path d="M 57.6 307.584 
L 414.72 307.584 
L 414.72 41.472 
L 57.6 41.472 
z
" style="fill:#ffffff;"/>
   </g>
   <g id="matplotlib.axis_1">
    <g id="xtick_1">
     <g id="line2d_1">
      <path clip-path="url(#pcc4e2b7b8b)" d="M 72.940819 307.584 
L 72.940819 41.472 
" style="fill:none;stroke:#000000;stroke-dasharray:1,1.65;stroke-dashoffset:0;stroke-opacity:0.5;"/>
     </g>
     <g id="line2d_2">
      <defs>
       <path d="M 0 0 
L 0 3.5 
" id="m962388addd" style="stroke:#000000;stroke-width:0.8;"/>
      </defs>
      <g>
       <use style="stroke:#000000;stroke-width:0.8;" x="72.940819" xlink:href="#m962388addd" y="307.584"/>
      </g>
     </g>
     <g id="text_1">
      <!-- 0 -->
      <g transform="translate(72.642509 324.455874)rotate(-45)scale(0.1 -0.1)">
       <defs>
        <path d="M 31.78125 66.40625 
Q 24.171875 66.40625 20.328125 58.90625 
Q 16.5 51.421875 16.5 36.375 
Q 16.5 21.390625 20.328125 13.890625 
Q 24.171875 6.390625 31.78125 6.390625 
Q 39.453125 6.390625 43.28125 13.890625 
Q 47.125 21.390625 47.125 36.375 
Q 47.125 51.421875 43.28125 58.90625 
Q 39.453125 66.40625 31.78125 66.40625 
z
M 31.78125 74.21875 
Q 44.046875 74.21875 50.515625 64.515625 
Q 56.984375 54.828125 56.984375 36.375 
Q 56.984375 17.96875 50.515625 8.265625 
Q 44.046875 -1.421875 31.78125 -1.421875 
Q 19.53125 -1.421875 13.0625 8.265625 
Q 6.59375 17.96875 6.59375 36.375 
Q 6.59375 54.828125 13.0625 64.515625 
Q 19.53125 74.21875 31.78125 74.21875 
z
" id="DejaVuSans-48"/>
       </defs>
       <use xlink:href="#DejaVuSans-48"/>
      </g>
     </g>
    </g>
    <g id="xtick_2">
     <g id="line2d_3">
      <path clip-path="url(#pcc4e2b7b8b)" d="M 117.536224 307.584 
L 117.536224 41.472 
" style="fill:none;stroke:#000000;stroke-dasharray:1,1.65;stroke-dashoffset:0;stroke-opacity:0.5;"/>
     </g>
     <g id="line2d_4">
      <g>
       <use style="stroke:#000000;stroke-width:0.8;" x="117.536224" xlink:href="#m962388addd" y="307.584"/>
      </g>
     </g>
     <g id="text_2">
      <!-- 50 -->
      <g transform="translate(114.98843 328.95484)rotate(-45)scale(0.1 -0.1)">
       <defs>
        <path d="M 10.796875 72.90625 
L 49.515625 72.90625 
L 49.515625 64.59375 
L 19.828125 64.59375 
L 19.828125 46.734375 
Q 21.96875 47.46875 24.109375 47.828125 
Q 26.265625 48.1875 28.421875 48.1875 
Q 40.625 48.1875 47.75 41.5 
Q 54.890625 34.8125 54.890625 23.390625 
Q 54.890625 11.625 47.5625 5.09375 
Q 40.234375 -1.421875 26.90625 -1.421875 
Q 22.3125 -1.421875 17.546875 -0.640625 
Q 12.796875 0.140625 7.71875 1.703125 
L 7.71875 11.625 
Q 12.109375 9.234375 16.796875 8.0625 
Q 21.484375 6.890625 26.703125 6.890625 
Q 35.15625 6.890625 40.078125 11.328125 
Q 45.015625 15.765625 45.015625 23.390625 
Q 45.015625 31 40.078125 35.4375 
Q 35.15625 39.890625 26.703125 39.890625 
Q 22.75 39.890625 18.8125 39.015625 
Q 14.890625 38.140625 10.796875 36.28125 
z
" id="DejaVuSans-53"/>
       </defs>
       <use xlink:href="#DejaVuSans-53"/>
       <use x="63.623047" xlink:href="#DejaVuSans-48"/>
      </g>
     </g>
    </g>
    <g id="xtick_3">
     <g id="line2d_5">
      <path clip-path="url(#pcc4e2b7b8b)" d="M 162.131628 307.584 
L 162.131628 41.472 
" style="fill:none;stroke:#000000;stroke-dasharray:1,1.65;stroke-dashoffset:0;stroke-opacity:0.5;"/>
     </g>
     <g id="line2d_6">
      <g>
       <use style="stroke:#000000;stroke-width:0.8;" x="162.131628" xlink:href="#m962388addd" y="307.584"/>
      </g>
     </g>
     <g id="text_3">
      <!-- 100 -->
      <g transform="translate(157.334351 333.453807)rotate(-45)scale(0.1 -0.1)">
       <defs>
        <path d="M 12.40625 8.296875 
L 28.515625 8.296875 
L 28.515625 63.921875 
L 10.984375 60.40625 
L 10.984375 69.390625 
L 28.421875 72.90625 
L 38.28125 72.90625 
L 38.28125 8.296875 
L 54.390625 8.296875 
L 54.390625 0 
L 12.40625 0 
z
" id="DejaVuSans-49"/>
       </defs>
       <use xlink:href="#DejaVuSans-49"/>
       <use x="63.623047" xlink:href="#DejaVuSans-48"/>
       <use x="127.246094" xlink:href="#DejaVuSans-48"/>
      </g>
     </g>
    </g>
    <g id="xtick_4">
     <g id="line2d_7">
      <path clip-path="url(#pcc4e2b7b8b)" d="M 206.727033 307.584 
L 206.727033 41.472 
" style="fill:none;stroke:#000000;stroke-dasharray:1,1.65;stroke-dashoffset:0;stroke-opacity:0.5;"/>
     </g>
     <g id="line2d_8">
      <g>
       <use style="stroke:#000000;stroke-width:0.8;" x="206.727033" xlink:href="#m962388addd" y="307.584"/>
      </g>
     </g>
     <g id="text_4">
      <!-- 150 -->
      <g transform="translate(201.929755 333.453807)rotate(-45)scale(0.1 -0.1)">
       <use xlink:href="#DejaVuSans-49"/>
       <use x="63.623047" xlink:href="#DejaVuSans-53"/>
       <use x="127.246094" xlink:href="#DejaVuSans-48"/>
      </g>
     </g>
    </g>
    <g id="xtick_5">
     <g id="line2d_9">
      <path clip-path="url(#pcc4e2b7b8b)" d="M 251.322438 307.584 
L 251.322438 41.472 
" style="fill:none;stroke:#000000;stroke-dasharray:1,1.65;stroke-dashoffset:0;stroke-opacity:0.5;"/>
     </g>
     <g id="line2d_10">
      <g>
       <use style="stroke:#000000;stroke-width:0.8;" x="251.322438" xlink:href="#m962388addd" y="307.584"/>
      </g>
     </g>
     <g id="text_5">
      <!-- 200 -->
      <g transform="translate(246.52516 333.453807)rotate(-45)scale(0.1 -0.1)">
       <defs>
        <path d="M 19.1875 8.296875 
L 53.609375 8.296875 
L 53.609375 0 
L 7.328125 0 
L 7.328125 8.296875 
Q 12.9375 14.109375 22.625 23.890625 
Q 32.328125 33.6875 34.8125 36.53125 
Q 39.546875 41.84375 41.421875 45.53125 
Q 43.3125 49.21875 43.3125 52.78125 
Q 43.3125 58.59375 39.234375 62.25 
Q 35.15625 65.921875 28.609375 65.921875 
Q 23.96875 65.921875 18.8125 64.3125 
Q 13.671875 62.703125 7.8125 59.421875 
L 7.8125 69.390625 
Q 13.765625 71.78125 18.9375 73 
Q 24.125 74.21875 28.421875 74.21875 
Q 39.75 74.21875 46.484375 68.546875 
Q 53.21875 62.890625 53.21875 53.421875 
Q 53.21875 48.921875 51.53125 44.890625 
Q 49.859375 40.875 45.40625 35.40625 
Q 44.1875 33.984375 37.640625 27.21875 
Q 31.109375 20.453125 19.1875 8.296875 
z
" id="DejaVuSans-50"/>
       </defs>
       <use xlink:href="#DejaVuSans-50"/>
       <use x="63.623047" xlink:href="#DejaVuSans-48"/>
       <use x="127.246094" xlink:href="#DejaVuSans-48"/>
      </g>
     </g>
    </g>
    <g id="xtick_6">
     <g id="line2d_11">
      <path clip-path="url(#pcc4e2b7b8b)" d="M 295.917842 307.584 
L 295.917842 41.472 
" style="fill:none;stroke:#000000;stroke-dasharray:1,1.65;stroke-dashoffset:0;stroke-opacity:0.5;"/>
     </g>
     <g id="line2d_12">
      <g>
       <use style="stroke:#000000;stroke-width:0.8;" x="295.917842" xlink:href="#m962388addd" y="307.584"/>
      </g>
     </g>
     <g id="text_6">
      <!-- 250 -->
      <g transform="translate(291.120565 333.453807)rotate(-45)scale(0.1 -0.1)">
       <use xlink:href="#DejaVuSans-50"/>
       <use x="63.623047" xlink:href="#DejaVuSans-53"/>
       <use x="127.246094" xlink:href="#DejaVuSans-48"/>
      </g>
     </g>
    </g>
    <g id="xtick_7">
     <g id="line2d_13">
      <path clip-path="url(#pcc4e2b7b8b)" d="M 340.513247 307.584 
L 340.513247 41.472 
" style="fill:none;stroke:#000000;stroke-dasharray:1,1.65;stroke-dashoffset:0;stroke-opacity:0.5;"/>
     </g>
     <g id="line2d_14">
      <g>
       <use style="stroke:#000000;stroke-width:0.8;" x="340.513247" xlink:href="#m962388addd" y="307.584"/>
      </g>
     </g>
     <g id="text_7">
      <!-- 300 -->
      <g transform="translate(335.715969 333.453807)rotate(-45)scale(0.1 -0.1)">
       <defs>
        <path d="M 40.578125 39.3125 
Q 47.65625 37.796875 51.625 33 
Q 55.609375 28.21875 55.609375 21.1875 
Q 55.609375 10.40625 48.1875 4.484375 
Q 40.765625 -1.421875 27.09375 -1.421875 
Q 22.515625 -1.421875 17.65625 -0.515625 
Q 12.796875 0.390625 7.625 2.203125 
L 7.625 11.71875 
Q 11.71875 9.328125 16.59375 8.109375 
Q 21.484375 6.890625 26.8125 6.890625 
Q 36.078125 6.890625 40.9375 10.546875 
Q 45.796875 14.203125 45.796875 21.1875 
Q 45.796875 27.640625 41.28125 31.265625 
Q 36.765625 34.90625 28.71875 34.90625 
L 20.21875 34.90625 
L 20.21875 43.015625 
L 29.109375 43.015625 
Q 36.375 43.015625 40.234375 45.921875 
Q 44.09375 48.828125 44.09375 54.296875 
Q 44.09375 59.90625 40.109375 62.90625 
Q 36.140625 65.921875 28.71875 65.921875 
Q 24.65625 65.921875 20.015625 65.03125 
Q 15.375 64.15625 9.8125 62.3125 
L 9.8125 71.09375 
Q 15.4375 72.65625 20.34375 73.4375 
Q 25.25 74.21875 29.59375 74.21875 
Q 40.828125 74.21875 47.359375 69.109375 
Q 53.90625 64.015625 53.90625 55.328125 
Q 53.90625 49.265625 50.4375 45.09375 
Q 46.96875 40.921875 40.578125 39.3125 
z
" id="DejaVuSans-51"/>
       </defs>
       <use xlink:href="#DejaVuSans-51"/>
       <use x="63.623047" xlink:href="#DejaVuSans-48"/>
       <use x="127.246094" xlink:href="#DejaVuSans-48"/>
      </g>
     </g>
    </g>
    <g id="xtick_8">
     <g id="line2d_15">
      <path clip-path="url(#pcc4e2b7b8b)" d="M 385.108651 307.584 
L 385.108651 41.472 
" style="fill:none;stroke:#000000;stroke-dasharray:1,1.65;stroke-dashoffset:0;stroke-opacity:0.5;"/>
     </g>
     <g id="line2d_16">
      <g>
       <use style="stroke:#000000;stroke-width:0.8;" x="385.108651" xlink:href="#m962388addd" y="307.584"/>
      </g>
     </g>
     <g id="text_8">
      <!-- 350 -->
      <g transform="translate(380.311374 333.453807)rotate(-45)scale(0.1 -0.1)">
       <use xlink:href="#DejaVuSans-51"/>
       <use x="63.623047" xlink:href="#DejaVuSans-53"/>
       <use x="127.246094" xlink:href="#DejaVuSans-48"/>
      </g>
     </g>
    </g>
    <g id="text_9">
     <!-- days of the year -->
     <g transform="translate(195.41 346.522806)scale(0.1 -0.1)">
      <defs>
       <path d="M 45.40625 46.390625 
L 45.40625 75.984375 
L 54.390625 75.984375 
L 54.390625 0 
L 45.40625 0 
L 45.40625 8.203125 
Q 42.578125 3.328125 38.25 0.953125 
Q 33.9375 -1.421875 27.875 -1.421875 
Q 17.96875 -1.421875 11.734375 6.484375 
Q 5.515625 14.40625 5.515625 27.296875 
Q 5.515625 40.1875 11.734375 48.09375 
Q 17.96875 56 27.875 56 
Q 33.9375 56 38.25 53.625 
Q 42.578125 51.265625 45.40625 46.390625 
z
M 14.796875 27.296875 
Q 14.796875 17.390625 18.875 11.75 
Q 22.953125 6.109375 30.078125 6.109375 
Q 37.203125 6.109375 41.296875 11.75 
Q 45.40625 17.390625 45.40625 27.296875 
Q 45.40625 37.203125 41.296875 42.84375 
Q 37.203125 48.484375 30.078125 48.484375 
Q 22.953125 48.484375 18.875 42.84375 
Q 14.796875 37.203125 14.796875 27.296875 
z
" id="DejaVuSans-100"/>
       <path d="M 34.28125 27.484375 
Q 23.390625 27.484375 19.1875 25 
Q 14.984375 22.515625 14.984375 16.5 
Q 14.984375 11.71875 18.140625 8.90625 
Q 21.296875 6.109375 26.703125 6.109375 
Q 34.1875 6.109375 38.703125 11.40625 
Q 43.21875 16.703125 43.21875 25.484375 
L 43.21875 27.484375 
z
M 52.203125 31.203125 
L 52.203125 0 
L 43.21875 0 
L 43.21875 8.296875 
Q 40.140625 3.328125 35.546875 0.953125 
Q 30.953125 -1.421875 24.3125 -1.421875 
Q 15.921875 -1.421875 10.953125 3.296875 
Q 6 8.015625 6 15.921875 
Q 6 25.140625 12.171875 29.828125 
Q 18.359375 34.515625 30.609375 34.515625 
L 43.21875 34.515625 
L 43.21875 35.40625 
Q 43.21875 41.609375 39.140625 45 
Q 35.0625 48.390625 27.6875 48.390625 
Q 23 48.390625 18.546875 47.265625 
Q 14.109375 46.140625 10.015625 43.890625 
L 10.015625 52.203125 
Q 14.9375 54.109375 19.578125 55.046875 
Q 24.21875 56 28.609375 56 
Q 40.484375 56 46.34375 49.84375 
Q 52.203125 43.703125 52.203125 31.203125 
z
" id="DejaVuSans-97"/>
       <path d="M 32.171875 -5.078125 
Q 28.375 -14.84375 24.75 -17.8125 
Q 21.140625 -20.796875 15.09375 -20.796875 
L 7.90625 -20.796875 
L 7.90625 -13.28125 
L 13.1875 -13.28125 
Q 16.890625 -13.28125 18.9375 -11.515625 
Q 21 -9.765625 23.484375 -3.21875 
L 25.09375 0.875 
L 2.984375 54.6875 
L 12.5 54.6875 
L 29.59375 11.921875 
L 46.6875 54.6875 
L 56.203125 54.6875 
z
" id="DejaVuSans-121"/>
       <path d="M 44.28125 53.078125 
L 44.28125 44.578125 
Q 40.484375 46.53125 36.375 47.5 
Q 32.28125 48.484375 27.875 48.484375 
Q 21.1875 48.484375 17.84375 46.4375 
Q 14.5 44.390625 14.5 40.28125 
Q 14.5 37.15625 16.890625 35.375 
Q 19.28125 33.59375 26.515625 31.984375 
L 29.59375 31.296875 
Q 39.15625 29.25 43.1875 25.515625 
Q 47.21875 21.78125 47.21875 15.09375 
Q 47.21875 7.46875 41.1875 3.015625 
Q 35.15625 -1.421875 24.609375 -1.421875 
Q 20.21875 -1.421875 15.453125 -0.5625 
Q 10.6875 0.296875 5.421875 2 
L 5.421875 11.28125 
Q 10.40625 8.6875 15.234375 7.390625 
Q 20.0625 6.109375 24.8125 6.109375 
Q 31.15625 6.109375 34.5625 8.28125 
Q 37.984375 10.453125 37.984375 14.40625 
Q 37.984375 18.0625 35.515625 20.015625 
Q 33.0625 21.96875 24.703125 23.78125 
L 21.578125 24.515625 
Q 13.234375 26.265625 9.515625 29.90625 
Q 5.8125 33.546875 5.8125 39.890625 
Q 5.8125 47.609375 11.28125 51.796875 
Q 16.75 56 26.8125 56 
Q 31.78125 56 36.171875 55.265625 
Q 40.578125 54.546875 44.28125 53.078125 
z
" id="DejaVuSans-115"/>
       <path id="DejaVuSans-32"/>
       <path d="M 30.609375 48.390625 
Q 23.390625 48.390625 19.1875 42.75 
Q 14.984375 37.109375 14.984375 27.296875 
Q 14.984375 17.484375 19.15625 11.84375 
Q 23.34375 6.203125 30.609375 6.203125 
Q 37.796875 6.203125 41.984375 11.859375 
Q 46.1875 17.53125 46.1875 27.296875 
Q 46.1875 37.015625 41.984375 42.703125 
Q 37.796875 48.390625 30.609375 48.390625 
z
M 30.609375 56 
Q 42.328125 56 49.015625 48.375 
Q 55.71875 40.765625 55.71875 27.296875 
Q 55.71875 13.875 49.015625 6.21875 
Q 42.328125 -1.421875 30.609375 -1.421875 
Q 18.84375 -1.421875 12.171875 6.21875 
Q 5.515625 13.875 5.515625 27.296875 
Q 5.515625 40.765625 12.171875 48.375 
Q 18.84375 56 30.609375 56 
z
" id="DejaVuSans-111"/>
       <path d="M 37.109375 75.984375 
L 37.109375 68.5 
L 28.515625 68.5 
Q 23.6875 68.5 21.796875 66.546875 
Q 19.921875 64.59375 19.921875 59.515625 
L 19.921875 54.6875 
L 34.71875 54.6875 
L 34.71875 47.703125 
L 19.921875 47.703125 
L 19.921875 0 
L 10.890625 0 
L 10.890625 47.703125 
L 2.296875 47.703125 
L 2.296875 54.6875 
L 10.890625 54.6875 
L 10.890625 58.5 
Q 10.890625 67.625 15.140625 71.796875 
Q 19.390625 75.984375 28.609375 75.984375 
z
" id="DejaVuSans-102"/>
       <path d="M 18.3125 70.21875 
L 18.3125 54.6875 
L 36.8125 54.6875 
L 36.8125 47.703125 
L 18.3125 47.703125 
L 18.3125 18.015625 
Q 18.3125 11.328125 20.140625 9.421875 
Q 21.96875 7.515625 27.59375 7.515625 
L 36.8125 7.515625 
L 36.8125 0 
L 27.59375 0 
Q 17.1875 0 13.234375 3.875 
Q 9.28125 7.765625 9.28125 18.015625 
L 9.28125 47.703125 
L 2.6875 47.703125 
L 2.6875 54.6875 
L 9.28125 54.6875 
L 9.28125 70.21875 
z
" id="DejaVuSans-116"/>
       <path d="M 54.890625 33.015625 
L 54.890625 0 
L 45.90625 0 
L 45.90625 32.71875 
Q 45.90625 40.484375 42.875 44.328125 
Q 39.84375 48.1875 33.796875 48.1875 
Q 26.515625 48.1875 22.3125 43.546875 
Q 18.109375 38.921875 18.109375 30.90625 
L 18.109375 0 
L 9.078125 0 
L 9.078125 75.984375 
L 18.109375 75.984375 
L 18.109375 46.1875 
Q 21.34375 51.125 25.703125 53.5625 
Q 30.078125 56 35.796875 56 
Q 45.21875 56 50.046875 50.171875 
Q 54.890625 44.34375 54.890625 33.015625 
z
" id="DejaVuSans-104"/>
       <path d="M 56.203125 29.59375 
L 56.203125 25.203125 
L 14.890625 25.203125 
Q 15.484375 15.921875 20.484375 11.0625 
Q 25.484375 6.203125 34.421875 6.203125 
Q 39.59375 6.203125 44.453125 7.46875 
Q 49.3125 8.734375 54.109375 11.28125 
L 54.109375 2.78125 
Q 49.265625 0.734375 44.1875 -0.34375 
Q 39.109375 -1.421875 33.890625 -1.421875 
Q 20.796875 -1.421875 13.15625 6.1875 
Q 5.515625 13.8125 5.515625 26.8125 
Q 5.515625 40.234375 12.765625 48.109375 
Q 20.015625 56 32.328125 56 
Q 43.359375 56 49.78125 48.890625 
Q 56.203125 41.796875 56.203125 29.59375 
z
M 47.21875 32.234375 
Q 47.125 39.59375 43.09375 43.984375 
Q 39.0625 48.390625 32.421875 48.390625 
Q 24.90625 48.390625 20.390625 44.140625 
Q 15.875 39.890625 15.1875 32.171875 
z
" id="DejaVuSans-101"/>
       <path d="M 41.109375 46.296875 
Q 39.59375 47.171875 37.8125 47.578125 
Q 36.03125 48 33.890625 48 
Q 26.265625 48 22.1875 43.046875 
Q 18.109375 38.09375 18.109375 28.8125 
L 18.109375 0 
L 9.078125 0 
L 9.078125 54.6875 
L 18.109375 54.6875 
L 18.109375 46.1875 
Q 20.953125 51.171875 25.484375 53.578125 
Q 30.03125 56 36.53125 56 
Q 37.453125 56 38.578125 55.875 
Q 39.703125 55.765625 41.0625 55.515625 
z
" id="DejaVuSans-114"/>
      </defs>
      <use xlink:href="#DejaVuSans-100"/>
      <use x="63.476562" xlink:href="#DejaVuSans-97"/>
      <use x="124.755859" xlink:href="#DejaVuSans-121"/>
      <use x="183.935547" xlink:href="#DejaVuSans-115"/>
      <use x="236.035156" xlink:href="#DejaVuSans-32"/>
      <use x="267.822266" xlink:href="#DejaVuSans-111"/>
      <use x="329.003906" xlink:href="#DejaVuSans-102"/>
      <use x="364.208984" xlink:href="#DejaVuSans-32"/>
      <use x="395.996094" xlink:href="#DejaVuSans-116"/>
      <use x="435.205078" xlink:href="#DejaVuSans-104"/>
      <use x="498.583984" xlink:href="#DejaVuSans-101"/>
      <use x="560.107422" xlink:href="#DejaVuSans-32"/>
      <use x="591.894531" xlink:href="#DejaVuSans-121"/>
      <use x="651.074219" xlink:href="#DejaVuSans-101"/>
      <use x="712.597656" xlink:href="#DejaVuSans-97"/>
      <use x="773.876953" xlink:href="#DejaVuSans-114"/>
     </g>
    </g>
   </g>
   <g id="matplotlib.axis_2">
    <g id="ytick_1">
     <g id="line2d_17">
      <path clip-path="url(#pcc4e2b7b8b)" d="M 57.6 293.76427 
L 414.72 293.76427 
" style="fill:none;stroke:#000000;stroke-dasharray:1,1.65;stroke-dashoffset:0;stroke-opacity:0.5;"/>
     </g>
     <g id="line2d_18">
      <defs>
       <path d="M 0 0 
L -3.5 0 
" id="m9233894651" style="stroke:#000000;stroke-width:0.8;"/>
      </defs>
      <g>
       <use style="stroke:#000000;stroke-width:0.8;" x="57.6" xlink:href="#m9233894651" y="293.76427"/>
      </g>
     </g>
     <g id="text_10">
      <!-- 0 -->
      <g transform="translate(44.2375 297.563489)scale(0.1 -0.1)">
       <use xlink:href="#DejaVuSans-48"/>
      </g>
     </g>
    </g>
    <g id="ytick_2">
     <g id="line2d_19">
      <path clip-path="url(#pcc4e2b7b8b)" d="M 57.6 256.40805 
L 414.72 256.40805 
" style="fill:none;stroke:#000000;stroke-dasharray:1,1.65;stroke-dashoffset:0;stroke-opacity:0.5;"/>
     </g>
     <g id="line2d_20">
      <g>
       <use style="stroke:#000000;stroke-width:0.8;" x="57.6" xlink:href="#m9233894651" y="256.40805"/>
      </g>
     </g>
     <g id="text_11">
      <!-- 5 -->
      <g transform="translate(44.2375 260.207268)scale(0.1 -0.1)">
       <use xlink:href="#DejaVuSans-53"/>
      </g>
     </g>
    </g>
    <g id="ytick_3">
     <g id="line2d_21">
      <path clip-path="url(#pcc4e2b7b8b)" d="M 57.6 219.051829 
L 414.72 219.051829 
" style="fill:none;stroke:#000000;stroke-dasharray:1,1.65;stroke-dashoffset:0;stroke-opacity:0.5;"/>
     </g>
     <g id="line2d_22">
      <g>
       <use style="stroke:#000000;stroke-width:0.8;" x="57.6" xlink:href="#m9233894651" y="219.051829"/>
      </g>
     </g>
     <g id="text_12">
      <!-- 10 -->
      <g transform="translate(37.875 222.851048)scale(0.1 -0.1)">
       <use xlink:href="#DejaVuSans-49"/>
       <use x="63.623047" xlink:href="#DejaVuSans-48"/>
      </g>
     </g>
    </g>
    <g id="ytick_4">
     <g id="line2d_23">
      <path clip-path="url(#pcc4e2b7b8b)" d="M 57.6 181.695609 
L 414.72 181.695609 
" style="fill:none;stroke:#000000;stroke-dasharray:1,1.65;stroke-dashoffset:0;stroke-opacity:0.5;"/>
     </g>
     <g id="line2d_24">
      <g>
       <use style="stroke:#000000;stroke-width:0.8;" x="57.6" xlink:href="#m9233894651" y="181.695609"/>
      </g>
     </g>
     <g id="text_13">
      <!-- 15 -->
      <g transform="translate(37.875 185.494828)scale(0.1 -0.1)">
       <use xlink:href="#DejaVuSans-49"/>
       <use x="63.623047" xlink:href="#DejaVuSans-53"/>
      </g>
     </g>
    </g>
    <g id="ytick_5">
     <g id="line2d_25">
      <path clip-path="url(#pcc4e2b7b8b)" d="M 57.6 144.339389 
L 414.72 144.339389 
" style="fill:none;stroke:#000000;stroke-dasharray:1,1.65;stroke-dashoffset:0;stroke-opacity:0.5;"/>
     </g>
     <g id="line2d_26">
      <g>
       <use style="stroke:#000000;stroke-width:0.8;" x="57.6" xlink:href="#m9233894651" y="144.339389"/>
      </g>
     </g>
     <g id="text_14">
      <!-- 20 -->
      <g transform="translate(37.875 148.138608)scale(0.1 -0.1)">
       <use xlink:href="#DejaVuSans-50"/>
       <use x="63.623047" xlink:href="#DejaVuSans-48"/>
      </g>
     </g>
    </g>
    <g id="ytick_6">
     <g id="line2d_27">
      <path clip-path="url(#pcc4e2b7b8b)" d="M 57.6 106.983169 
L 414.72 106.983169 
" style="fill:none;stroke:#000000;stroke-dasharray:1,1.65;stroke-dashoffset:0;stroke-opacity:0.5;"/>
     </g>
     <g id="line2d_28">
      <g>
       <use style="stroke:#000000;stroke-width:0.8;" x="57.6" xlink:href="#m9233894651" y="106.983169"/>
      </g>
     </g>
     <g id="text_15">
      <!-- 25 -->
      <g transform="translate(37.875 110.782387)scale(0.1 -0.1)">
       <use xlink:href="#DejaVuSans-50"/>
       <use x="63.623047" xlink:href="#DejaVuSans-53"/>
      </g>
     </g>
    </g>
    <g id="ytick_7">
     <g id="line2d_29">
      <path clip-path="url(#pcc4e2b7b8b)" d="M 57.6 69.626948 
L 414.72 69.626948 
" style="fill:none;stroke:#000000;stroke-dasharray:1,1.65;stroke-dashoffset:0;stroke-opacity:0.5;"/>
     </g>
     <g id="line2d_30">
      <g>
       <use style="stroke:#000000;stroke-width:0.8;" x="57.6" xlink:href="#m9233894651" y="69.626948"/>
      </g>
     </g>
     <g id="text_16">
      <!-- 30 -->
      <g transform="translate(37.875 73.426167)scale(0.1 -0.1)">
       <use xlink:href="#DejaVuSans-51"/>
       <use x="63.623047" xlink:href="#DejaVuSans-48"/>
      </g>
     </g>
    </g>
    <g id="text_17">
     <!-- daily temperatures -->
     <g transform="translate(31.795312 222.123312)rotate(-90)scale(0.1 -0.1)">
      <defs>
       <path d="M 9.421875 54.6875 
L 18.40625 54.6875 
L 18.40625 0 
L 9.421875 0 
z
M 9.421875 75.984375 
L 18.40625 75.984375 
L 18.40625 64.59375 
L 9.421875 64.59375 
z
" id="DejaVuSans-105"/>
       <path d="M 9.421875 75.984375 
L 18.40625 75.984375 
L 18.40625 0 
L 9.421875 0 
z
" id="DejaVuSans-108"/>
       <path d="M 52 44.1875 
Q 55.375 50.25 60.0625 53.125 
Q 64.75 56 71.09375 56 
Q 79.640625 56 84.28125 50.015625 
Q 88.921875 44.046875 88.921875 33.015625 
L 88.921875 0 
L 79.890625 0 
L 79.890625 32.71875 
Q 79.890625 40.578125 77.09375 44.375 
Q 74.3125 48.1875 68.609375 48.1875 
Q 61.625 48.1875 57.5625 43.546875 
Q 53.515625 38.921875 53.515625 30.90625 
L 53.515625 0 
L 44.484375 0 
L 44.484375 32.71875 
Q 44.484375 40.625 41.703125 44.40625 
Q 38.921875 48.1875 33.109375 48.1875 
Q 26.21875 48.1875 22.15625 43.53125 
Q 18.109375 38.875 18.109375 30.90625 
L 18.109375 0 
L 9.078125 0 
L 9.078125 54.6875 
L 18.109375 54.6875 
L 18.109375 46.1875 
Q 21.1875 51.21875 25.484375 53.609375 
Q 29.78125 56 35.6875 56 
Q 41.65625 56 45.828125 52.96875 
Q 50 49.953125 52 44.1875 
z
" id="DejaVuSans-109"/>
       <path d="M 18.109375 8.203125 
L 18.109375 -20.796875 
L 9.078125 -20.796875 
L 9.078125 54.6875 
L 18.109375 54.6875 
L 18.109375 46.390625 
Q 20.953125 51.265625 25.265625 53.625 
Q 29.59375 56 35.59375 56 
Q 45.5625 56 51.78125 48.09375 
Q 58.015625 40.1875 58.015625 27.296875 
Q 58.015625 14.40625 51.78125 6.484375 
Q 45.5625 -1.421875 35.59375 -1.421875 
Q 29.59375 -1.421875 25.265625 0.953125 
Q 20.953125 3.328125 18.109375 8.203125 
z
M 48.6875 27.296875 
Q 48.6875 37.203125 44.609375 42.84375 
Q 40.53125 48.484375 33.40625 48.484375 
Q 26.265625 48.484375 22.1875 42.84375 
Q 18.109375 37.203125 18.109375 27.296875 
Q 18.109375 17.390625 22.1875 11.75 
Q 26.265625 6.109375 33.40625 6.109375 
Q 40.53125 6.109375 44.609375 11.75 
Q 48.6875 17.390625 48.6875 27.296875 
z
" id="DejaVuSans-112"/>
       <path d="M 8.5 21.578125 
L 8.5 54.6875 
L 17.484375 54.6875 
L 17.484375 21.921875 
Q 17.484375 14.15625 20.5 10.265625 
Q 23.53125 6.390625 29.59375 6.390625 
Q 36.859375 6.390625 41.078125 11.03125 
Q 45.3125 15.671875 45.3125 23.6875 
L 45.3125 54.6875 
L 54.296875 54.6875 
L 54.296875 0 
L 45.3125 0 
L 45.3125 8.40625 
Q 42.046875 3.421875 37.71875 1 
Q 33.40625 -1.421875 27.6875 -1.421875 
Q 18.265625 -1.421875 13.375 4.4375 
Q 8.5 10.296875 8.5 21.578125 
z
M 31.109375 56 
z
" id="DejaVuSans-117"/>
      </defs>
      <use xlink:href="#DejaVuSans-100"/>
      <use x="63.476562" xlink:href="#DejaVuSans-97"/>
      <use x="124.755859" xlink:href="#DejaVuSans-105"/>
      <use x="152.539062" xlink:href="#DejaVuSans-108"/>
      <use x="180.322266" xlink:href="#DejaVuSans-121"/>
      <use x="239.501953" xlink:href="#DejaVuSans-32"/>
      <use x="271.289062" xlink:href="#DejaVuSans-116"/>
      <use x="310.498047" xlink:href="#DejaVuSans-101"/>
      <use x="372.021484" xlink:href="#DejaVuSans-109"/>
      <use x="469.433594" xlink:href="#DejaVuSans-112"/>
      <use x="532.910156" xlink:href="#DejaVuSans-101"/>
      <use x="594.433594" xlink:href="#DejaVuSans-114"/>
      <use x="635.546875" xlink:href="#DejaVuSans-97"/>
      <use x="696.826172" xlink:href="#DejaVuSans-116"/>
      <use x="736.035156" xlink:href="#DejaVuSans-117"/>
      <use x="799.414062" xlink:href="#DejaVuSans-114"/>
      <use x="838.277344" xlink:href="#DejaVuSans-101"/>
      <use x="899.800781" xlink:href="#DejaVuSans-115"/>
     </g>
    </g>
   </g>
   <g id="line2d_31">
    <path clip-path="url(#pcc4e2b7b8b)" d="M 73.832727 67.444172 
L 74.724635 98.014152 
L 75.616543 85.045998 
L 76.508452 56.756389 
L 77.40036 65.124224 
L 78.292268 128.887613 
L 79.184176 85.688141 
L 80.076084 110.375649 
L 80.967992 109.296688 
L 81.8599 97.780124 
L 82.751808 103.754615 
L 83.643716 74.387472 
L 85.427532 104.255977 
L 86.319441 97.034537 
L 87.211349 99.504282 
L 88.103257 73.49528 
L 88.995165 111.581531 
L 89.887073 99.966153 
L 90.778981 126.126642 
L 91.670889 164.205199 
L 92.562797 92.333137 
L 93.454705 87.607927 
L 94.346613 123.617857 
L 95.238521 56.109496 
L 96.13043 139.580931 
L 97.022338 105.95755 
L 97.914246 111.178657 
L 98.806154 72.627866 
L 99.698062 74.049355 
L 100.58997 103.510219 
L 101.481878 98.507135 
L 102.373786 126.881761 
L 103.265694 151.38021 
L 104.157602 114.781178 
L 105.04951 103.478805 
L 105.941419 79.407763 
L 106.833327 80.033349 
L 107.725235 115.664608 
L 108.617143 113.758902 
L 109.509051 130.485154 
L 110.400959 138.81107 
L 111.292867 145.227052 
L 112.184775 63.259011 
L 113.076683 118.406376 
L 113.968591 116.802049 
L 114.8605 135.062988 
L 115.752408 89.556708 
L 116.644316 143.156643 
L 117.536224 111.751472 
L 118.428132 127.053916 
L 119.32004 98.31124 
L 120.211948 118.432218 
L 121.103856 133.445542 
L 121.995764 107.614838 
L 122.887672 97.382653 
L 123.77958 105.492269 
L 124.671489 100.203645 
L 125.563397 121.200694 
L 126.455305 115.113552 
L 127.347213 122.055517 
L 128.239121 115.042097 
L 129.131029 125.208812 
L 130.022937 145.675605 
L 130.914845 103.006387 
L 131.806753 115.988579 
L 132.698661 143.521998 
L 133.590569 96.610491 
L 134.482478 127.319111 
L 135.374386 105.818878 
L 136.266294 90.641528 
L 137.158202 104.09218 
L 138.05011 81.444947 
L 138.942018 134.660224 
L 139.833926 97.965191 
L 140.725834 122.332319 
L 141.617742 126.500983 
L 143.401558 113.966224 
L 144.293467 105.724294 
L 145.185375 133.098525 
L 146.077283 86.792285 
L 146.969191 96.545935 
L 147.861099 141.416123 
L 148.753007 73.625883 
L 149.644915 64.489216 
L 150.536823 80.562319 
L 151.428731 111.015956 
L 152.320639 130.982731 
L 153.212547 83.34897 
L 154.104456 116.019869 
L 154.996364 79.583612 
L 155.888272 102.314949 
L 156.78018 85.093043 
L 157.672088 98.995668 
L 158.563996 91.146227 
L 159.455904 106.747824 
L 160.347812 66.955146 
L 161.23972 104.138595 
L 162.131628 97.973087 
L 163.023536 64.774733 
L 163.915445 137.191479 
L 164.807353 135.459479 
L 165.699261 85.25537 
L 166.591169 133.277242 
L 167.483077 63.419364 
L 168.374985 116.253914 
L 169.266893 123.736421 
L 170.158801 63.882861 
L 171.050709 73.799307 
L 171.942617 65.124202 
L 172.834525 86.675326 
L 173.726434 126.28645 
L 174.618342 64.171484 
L 175.51025 112.990124 
L 176.402158 88.997126 
L 177.294066 85.751717 
L 178.185974 110.457523 
L 179.077882 93.219358 
L 179.96979 86.313075 
L 180.861698 98.546068 
L 181.753606 131.624843 
L 182.645514 100.298538 
L 183.537423 77.25391 
L 184.429331 122.551027 
L 185.321239 110.337037 
L 186.213147 116.736584 
L 187.105055 65.534267 
L 187.996963 91.914534 
L 188.888871 97.850428 
L 189.780779 124.239861 
L 190.672687 94.896582 
L 191.564595 122.09748 
L 192.456503 106.269727 
L 193.348412 121.234852 
L 194.24032 91.821774 
L 195.132228 94.059617 
L 196.024136 111.651921 
L 196.916044 98.10718 
L 197.807952 131.482757 
L 198.69986 140.407817 
L 199.591768 97.134761 
L 200.483676 103.247394 
L 201.375584 92.749744 
L 202.267493 53.568 
L 203.159401 85.813858 
L 204.051309 127.442922 
L 204.943217 81.946665 
L 205.835125 136.477565 
L 206.727033 117.329002 
L 207.618941 108.512718 
L 208.510849 68.580764 
L 209.402757 123.675904 
L 210.294665 125.506741 
L 211.186573 109.189857 
L 212.078482 121.854193 
L 212.97039 81.731053 
L 213.862298 131.188464 
L 214.754206 132.702224 
L 215.646114 116.79635 
L 216.538022 118.145935 
L 217.42993 63.735154 
L 219.213746 105.020819 
L 220.105654 134.449752 
L 220.997562 88.057843 
L 221.889471 129.401728 
L 222.781379 141.607254 
L 223.673287 80.354987 
L 224.565195 99.879302 
L 225.457103 86.343286 
L 226.349011 99.839292 
L 227.240919 87.778397 
L 228.132827 121.575082 
L 229.024735 130.164411 
L 229.916643 91.706092 
L 230.808551 124.990578 
L 231.70046 122.438553 
L 232.592368 117.193352 
L 233.484276 106.591395 
L 234.376184 114.917493 
L 235.268092 137.800959 
L 236.16 121.409059 
L 237.051908 156.817931 
L 237.943816 92.969398 
L 238.835724 142.89126 
L 239.727632 131.736521 
L 240.61954 105.813955 
L 241.511449 123.559536 
L 242.403357 72.398453 
L 243.295265 135.960917 
L 244.187173 100.997562 
L 245.079081 107.863643 
L 245.970989 133.164503 
L 246.862897 95.254586 
L 247.754805 110.828162 
L 248.646713 89.684462 
L 249.538621 88.525367 
L 250.430529 58.496978 
L 251.322438 77.026589 
L 252.214346 115.257911 
L 253.106254 112.348549 
L 253.998162 82.335693 
L 254.89007 92.296263 
L 255.781978 92.635432 
L 256.673886 143.225188 
L 257.565794 107.528408 
L 258.457702 123.525196 
L 259.34961 100.709014 
L 260.241518 109.183085 
L 261.133427 86.582662 
L 262.025335 99.873125 
L 262.917243 89.358624 
L 263.809151 117.437361 
L 264.701059 128.151734 
L 265.592967 116.173913 
L 267.376783 98.484963 
L 268.268691 56.343623 
L 269.160599 107.930309 
L 270.052507 128.409464 
L 270.944416 114.737912 
L 271.836324 117.374085 
L 272.728232 96.191372 
L 273.62014 141.51818 
L 274.512048 105.565231 
L 275.403956 103.475273 
L 276.295864 101.779125 
L 277.187772 120.371251 
L 278.07968 112.315883 
L 278.971588 138.901688 
L 279.863497 118.040308 
L 280.755405 119.15072 
L 281.647313 97.657934 
L 282.539221 132.897532 
L 283.431129 89.473604 
L 284.323037 73.486192 
L 285.214945 153.379259 
L 286.106853 97.42912 
L 286.998761 91.811133 
L 287.890669 121.270511 
L 289.674486 109.961518 
L 290.566394 113.657774 
L 291.458302 113.909303 
L 292.35021 144.548669 
L 293.242118 81.155118 
L 294.134026 82.784887 
L 295.025934 125.213697 
L 295.917842 139.851211 
L 296.80975 95.30416 
L 297.701658 119.888726 
L 298.593566 103.801468 
L 299.485475 114.14051 
L 300.377383 91.483204 
L 301.269291 91.411247 
L 302.161199 123.246514 
L 303.053107 137.989518 
L 303.945015 142.462726 
L 304.836923 93.302289 
L 305.728831 133.629942 
L 306.620739 118.342815 
L 307.512647 120.348792 
L 308.404555 108.161398 
L 309.296464 150.382426 
L 310.188372 102.751936 
L 311.08028 95.240816 
L 312.864096 113.951288 
L 313.756004 104.800067 
L 314.647912 98.039051 
L 315.53982 169.12732 
L 316.431728 63.143874 
L 317.323636 98.239721 
L 318.215544 121.60608 
L 319.107453 115.745893 
L 319.999361 95.916573 
L 320.891269 109.585491 
L 321.783177 152.498386 
L 322.675085 60.710179 
L 323.566993 109.460797 
L 324.458901 84.117291 
L 325.350809 122.494589 
L 326.242717 72.547225 
L 327.134625 100.565138 
L 328.026533 93.336706 
L 328.918442 130.411198 
L 329.81035 79.836883 
L 330.702258 91.521769 
L 331.594166 77.803936 
L 332.486074 121.060955 
L 333.377982 117.764782 
L 334.26989 55.343797 
L 335.161798 130.742079 
L 336.053706 110.030309 
L 336.945614 81.50119 
L 337.837522 104.792787 
L 338.729431 93.917001 
L 339.621339 115.936312 
L 340.513247 98.688835 
L 341.405155 136.267312 
L 342.297063 69.818272 
L 343.188971 109.631666 
L 344.080879 122.228501 
L 344.972787 92.047037 
L 345.864695 117.309619 
L 346.756603 136.888881 
L 347.648511 137.168134 
L 348.54042 91.433123 
L 349.432328 110.559805 
L 350.324236 109.97992 
L 351.216144 82.826908 
L 352.108052 132.239541 
L 352.99996 123.360384 
L 353.891868 115.609762 
L 354.783776 104.868397 
L 355.675684 107.928388 
L 356.567592 113.413381 
L 357.4595 108.364446 
L 358.351409 109.38828 
L 359.243317 123.112189 
L 360.135225 125.205376 
L 361.027133 100.830233 
L 361.919041 126.951901 
L 362.810949 132.923819 
L 363.702857 113.982804 
L 364.594765 110.517075 
L 365.486673 56.401573 
L 366.378581 122.778132 
L 367.27049 85.841175 
L 368.162398 90.235889 
L 369.054306 133.631862 
L 369.946214 89.651684 
L 370.838122 133.518352 
L 371.73003 166.585143 
L 372.621938 93.393285 
L 373.513846 146.33923 
L 374.405754 96.876044 
L 375.297662 122.314406 
L 376.18957 69.786442 
L 377.081479 83.033885 
L 377.973387 117.145237 
L 378.865295 122.400177 
L 379.757203 134.195174 
L 380.649111 116.86589 
L 381.541019 113.266982 
L 382.432927 115.157312 
L 383.324835 103.47085 
L 384.216743 94.016343 
L 385.108651 99.146107 
L 386.000559 124.110486 
L 386.892468 139.209442 
L 387.784376 76.398917 
L 388.676284 122.436298 
L 389.568192 121.603503 
L 390.4601 118.664966 
L 391.352008 148.293236 
L 392.243916 117.69635 
L 393.135824 117.734046 
L 394.027732 93.078624 
L 394.91964 91.328137 
L 395.811548 106.898649 
L 396.703457 86.096969 
L 397.595365 99.363285 
L 398.487273 107.334663 
L 398.487273 107.334663 
" style="fill:none;stroke:#0000ff;stroke-linecap:square;stroke-width:1.5;"/>
   </g>
   <g id="line2d_32">
    <path clip-path="url(#pcc4e2b7b8b)" d="M 73.832727 175.683941 
L 74.724635 188.817703 
L 75.616543 196.445695 
L 76.508452 191.697122 
L 77.40036 223.833849 
L 78.292268 171.219367 
L 79.184176 218.794953 
L 80.076084 150.255446 
L 80.967992 191.014439 
L 81.8599 179.846664 
L 82.751808 163.247734 
L 83.643716 157.663812 
L 84.535624 240.368163 
L 85.427532 189.424748 
L 86.319441 148.815452 
L 87.211349 245.130424 
L 88.103257 167.228274 
L 88.995165 265.954963 
L 89.887073 219.8926 
L 90.778981 180.252518 
L 91.670889 243.584223 
L 92.562797 218.510565 
L 93.454705 236.677802 
L 94.346613 120.127518 
L 95.238521 175.560681 
L 96.13043 160.503789 
L 97.022338 190.013909 
L 97.914246 194.898483 
L 98.806154 242.080975 
L 99.698062 192.59755 
L 100.58997 210.14208 
L 101.481878 149.646814 
L 102.373786 139.068356 
L 103.265694 126.909772 
L 104.157602 149.847491 
L 105.04951 204.059057 
L 105.941419 223.381303 
L 106.833327 153.05597 
L 107.725235 168.385856 
L 108.617143 247.761521 
L 109.509051 168.416153 
L 110.400959 151.268227 
L 111.292867 179.494372 
L 112.184775 188.608515 
L 113.968591 235.732678 
L 114.8605 151.799503 
L 115.752408 193.242956 
L 116.644316 190.417041 
L 117.536224 116.967695 
L 118.428132 156.125235 
L 119.32004 167.842989 
L 120.211948 176.388717 
L 121.103856 124.914346 
L 121.995764 117.458252 
L 122.887672 146.972811 
L 123.77958 159.945899 
L 124.671489 259.942063 
L 125.563397 177.073826 
L 126.455305 186.555913 
L 127.347213 178.185872 
L 128.239121 146.466972 
L 129.131029 284.039593 
L 130.022937 202.962956 
L 130.914845 171.613003 
L 131.806753 199.135194 
L 132.698661 234.625866 
L 133.590569 149.234418 
L 134.482478 171.352721 
L 135.374386 217.972405 
L 136.266294 169.935228 
L 137.158202 151.004272 
L 138.05011 181.497896 
L 138.942018 151.789534 
L 139.833926 178.772105 
L 140.725834 196.45987 
L 141.617742 225.007177 
L 142.50965 184.905658 
L 143.401558 174.437559 
L 144.293467 148.977808 
L 145.185375 185.995589 
L 146.077283 164.608291 
L 146.969191 217.729868 
L 147.861099 210.931676 
L 148.753007 185.819336 
L 149.644915 221.092542 
L 150.536823 151.05425 
L 151.428731 164.394811 
L 152.320639 171.269646 
L 153.212547 169.035432 
L 154.104456 106.197061 
L 154.996364 199.210603 
L 155.888272 263.933135 
L 156.78018 174.250507 
L 157.672088 183.585966 
L 159.455904 218.260993 
L 160.347812 198.10207 
L 161.23972 174.921491 
L 162.131628 200.478941 
L 163.023536 91.575458 
L 163.915445 217.576422 
L 164.807353 211.323476 
L 165.699261 267.189803 
L 166.591169 172.301102 
L 167.483077 257.020939 
L 168.374985 201.847595 
L 169.266893 191.993618 
L 170.158801 208.208363 
L 171.050709 116.737898 
L 171.942617 144.548793 
L 172.834525 132.417641 
L 173.726434 214.659441 
L 174.618342 139.535601 
L 175.51025 163.166889 
L 177.294066 143.239666 
L 178.185974 215.643569 
L 179.077882 197.546512 
L 179.96979 149.472283 
L 180.861698 280.899501 
L 181.753606 125.163392 
L 182.645514 161.032686 
L 183.537423 183.402936 
L 184.429331 173.458277 
L 185.321239 220.170098 
L 186.213147 194.768171 
L 187.105055 140.593145 
L 187.996963 133.206414 
L 188.888871 80.97487 
L 189.780779 184.457155 
L 190.672687 206.296659 
L 191.564595 200.905446 
L 192.456503 219.725806 
L 193.348412 184.603969 
L 194.24032 167.398172 
L 195.132228 182.974771 
L 196.024136 140.740235 
L 196.916044 190.445026 
L 197.807952 194.675052 
L 198.69986 203.409602 
L 199.591768 242.684664 
L 200.483676 240.261486 
L 201.375584 225.744493 
L 202.267493 133.079175 
L 203.159401 148.252069 
L 204.051309 130.332149 
L 204.943217 231.462001 
L 205.835125 255.235987 
L 206.727033 206.352818 
L 207.618941 175.127678 
L 208.510849 163.066425 
L 209.402757 142.54733 
L 210.294665 171.075995 
L 211.186573 116.59609 
L 212.078482 190.011316 
L 213.862298 244.499567 
L 214.754206 214.904219 
L 215.646114 172.650997 
L 216.538022 214.894839 
L 217.42993 146.702451 
L 218.321838 128.936384 
L 219.213746 270.214419 
L 220.105654 149.417881 
L 220.997562 265.358752 
L 221.889471 166.697122 
L 222.781379 135.939075 
L 223.673287 179.27283 
L 224.565195 229.49996 
L 225.457103 203.565106 
L 226.349011 191.469694 
L 227.240919 188.503585 
L 228.132827 189.275068 
L 229.024735 185.800414 
L 229.916643 173.720801 
L 230.808551 226.843353 
L 231.70046 190.736555 
L 232.592368 124.97911 
L 233.484276 196.064508 
L 234.376184 198.275648 
L 235.268092 141.418233 
L 236.16 277.297075 
L 237.051908 137.56377 
L 237.943816 205.301145 
L 238.835724 175.571857 
L 239.727632 178.097407 
L 240.61954 146.488563 
L 241.511449 191.691937 
L 242.403357 207.02409 
L 243.295265 133.212996 
L 244.187173 270.012207 
L 245.079081 180.936001 
L 245.970989 232.049008 
L 246.862897 210.145112 
L 247.754805 106.562662 
L 248.646713 183.361526 
L 249.538621 174.408543 
L 250.430529 248.248064 
L 252.214346 174.352968 
L 253.106254 168.443203 
L 253.998162 158.651059 
L 254.89007 181.373303 
L 255.781978 162.008724 
L 256.673886 164.744032 
L 257.565794 250.047795 
L 258.457702 180.313215 
L 259.34961 153.009678 
L 260.241518 159.659929 
L 261.133427 195.287999 
L 262.025335 211.79077 
L 262.917243 223.471516 
L 263.809151 186.591292 
L 264.701059 139.368028 
L 265.592967 254.607633 
L 266.484875 206.34667 
L 267.376783 224.274321 
L 268.268691 152.372563 
L 269.160599 202.402522 
L 270.052507 199.276853 
L 270.944416 189.800025 
L 271.836324 165.057401 
L 272.728232 196.353779 
L 273.62014 295.488 
L 274.512048 161.39953 
L 275.403956 165.294624 
L 276.295864 189.896832 
L 277.187772 222.19112 
L 278.07968 168.554434 
L 278.971588 167.528803 
L 279.863497 199.254261 
L 280.755405 189.791878 
L 281.647313 216.44274 
L 282.539221 188.367023 
L 283.431129 239.613789 
L 284.323037 166.106155 
L 285.214945 216.973646 
L 286.106853 172.800976 
L 286.998761 234.21707 
L 287.890669 203.737933 
L 288.782577 185.823076 
L 289.674486 243.733077 
L 290.566394 177.39412 
L 291.458302 195.859129 
L 292.35021 246.783451 
L 293.242118 230.379833 
L 294.134026 159.09061 
L 295.025934 148.241023 
L 295.917842 186.623217 
L 296.80975 166.575238 
L 297.701658 173.33366 
L 298.593566 169.38214 
L 299.485475 133.656107 
L 300.377383 237.991373 
L 301.269291 156.425593 
L 302.161199 195.96602 
L 303.053107 190.073075 
L 304.836923 195.709687 
L 305.728831 227.501664 
L 307.512647 119.275493 
L 308.404555 183.792527 
L 309.296464 181.747349 
L 310.188372 207.370503 
L 311.972188 164.281393 
L 312.864096 195.526467 
L 313.756004 198.648013 
L 314.647912 166.63117 
L 315.53982 215.988798 
L 316.431728 172.26329 
L 318.215544 130.893072 
L 319.107453 185.071939 
L 319.999361 130.607345 
L 320.891269 143.053966 
L 321.783177 218.910348 
L 322.675085 227.193188 
L 323.566993 193.087898 
L 324.458901 143.258468 
L 325.350809 184.395979 
L 326.242717 204.133905 
L 327.134625 123.709671 
L 328.026533 170.977942 
L 328.918442 268.38424 
L 329.81035 169.847687 
L 330.702258 162.268857 
L 331.594166 173.267723 
L 332.486074 164.896065 
L 333.377982 184.208772 
L 334.26989 230.945896 
L 335.161798 195.54371 
L 336.053706 217.020241 
L 336.945614 216.539284 
L 337.837522 228.879069 
L 338.729431 164.792327 
L 339.621339 178.038579 
L 340.513247 198.437373 
L 341.405155 205.95242 
L 342.297063 182.570608 
L 343.188971 141.380973 
L 344.080879 256.565533 
L 344.972787 167.616927 
L 345.864695 202.081346 
L 346.756603 252.096613 
L 347.648511 254.379722 
L 349.432328 173.495562 
L 350.324236 167.012264 
L 351.216144 216.772412 
L 352.108052 143.703549 
L 352.99996 128.538324 
L 354.783776 203.788177 
L 355.675684 139.691558 
L 356.567592 153.476881 
L 357.4595 149.292547 
L 358.351409 206.218611 
L 359.243317 287.583852 
L 360.135225 102.620298 
L 361.027133 241.871938 
L 361.919041 183.031769 
L 362.810949 92.759961 
L 363.702857 169.346511 
L 364.594765 146.235349 
L 365.486673 237.819466 
L 366.378581 248.102527 
L 367.27049 201.595372 
L 368.162398 140.949322 
L 369.054306 194.63018 
L 369.946214 211.380219 
L 371.73003 141.278599 
L 372.621938 235.673113 
L 373.513846 226.91692 
L 374.405754 211.157312 
L 375.297662 140.804057 
L 376.18957 172.923565 
L 377.081479 102.046417 
L 377.973387 146.713536 
L 378.865295 183.006632 
L 379.757203 134.437083 
L 380.649111 173.79488 
L 381.541019 208.028806 
L 382.432927 156.294319 
L 383.324835 207.707741 
L 384.216743 192.543747 
L 385.108651 132.094666 
L 386.000559 185.479103 
L 386.892468 211.697936 
L 387.784376 199.04151 
L 388.676284 143.525375 
L 389.568192 202.33644 
L 390.4601 196.147642 
L 391.352008 200.758217 
L 392.243916 174.824848 
L 393.135824 196.09605 
L 394.027732 241.534149 
L 394.91964 214.837336 
L 395.811548 216.541082 
L 396.703457 135.249896 
L 397.595365 151.337179 
L 398.487273 159.757818 
L 398.487273 159.757818 
" style="fill:none;stroke:#008000;stroke-linecap:square;stroke-width:1.5;"/>
   </g>
   <g id="patch_3">
    <path d="M 57.6 307.584 
L 57.6 41.472 
" style="fill:none;stroke:#000000;stroke-linecap:square;stroke-linejoin:miter;stroke-width:0.8;"/>
   </g>
   <g id="patch_4">
    <path d="M 414.72 307.584 
L 414.72 41.472 
" style="fill:none;stroke:#000000;stroke-linecap:square;stroke-linejoin:miter;stroke-width:0.8;"/>
   </g>
   <g id="patch_5">
    <path d="M 57.6 307.584 
L 414.72 307.584 
" style="fill:none;stroke:#000000;stroke-linecap:square;stroke-linejoin:miter;stroke-width:0.8;"/>
   </g>
   <g id="patch_6">
    <path d="M 57.6 41.472 
L 414.72 41.472 
" style="fill:none;stroke:#000000;stroke-linecap:square;stroke-linejoin:miter;stroke-width:0.8;"/>
   </g>
   <g id="text_18">
    <!-- Temperature Flucations Two Cities -->
    <g transform="translate(133.975313 35.472)scale(0.12 -0.12)">
     <defs>
      <path d="M -0.296875 72.90625 
L 61.375 72.90625 
L 61.375 64.59375 
L 35.5 64.59375 
L 35.5 0 
L 25.59375 0 
L 25.59375 64.59375 
L -0.296875 64.59375 
z
" id="DejaVuSans-84"/>
      <path d="M 9.8125 72.90625 
L 51.703125 72.90625 
L 51.703125 64.59375 
L 19.671875 64.59375 
L 19.671875 43.109375 
L 48.578125 43.109375 
L 48.578125 34.8125 
L 19.671875 34.8125 
L 19.671875 0 
L 9.8125 0 
z
" id="DejaVuSans-70"/>
      <path d="M 48.78125 52.59375 
L 48.78125 44.1875 
Q 44.96875 46.296875 41.140625 47.34375 
Q 37.3125 48.390625 33.40625 48.390625 
Q 24.65625 48.390625 19.8125 42.84375 
Q 14.984375 37.3125 14.984375 27.296875 
Q 14.984375 17.28125 19.8125 11.734375 
Q 24.65625 6.203125 33.40625 6.203125 
Q 37.3125 6.203125 41.140625 7.25 
Q 44.96875 8.296875 48.78125 10.40625 
L 48.78125 2.09375 
Q 45.015625 0.34375 40.984375 -0.53125 
Q 36.96875 -1.421875 32.421875 -1.421875 
Q 20.0625 -1.421875 12.78125 6.34375 
Q 5.515625 14.109375 5.515625 27.296875 
Q 5.515625 40.671875 12.859375 48.328125 
Q 20.21875 56 33.015625 56 
Q 37.15625 56 41.109375 55.140625 
Q 45.0625 54.296875 48.78125 52.59375 
z
" id="DejaVuSans-99"/>
      <path d="M 54.890625 33.015625 
L 54.890625 0 
L 45.90625 0 
L 45.90625 32.71875 
Q 45.90625 40.484375 42.875 44.328125 
Q 39.84375 48.1875 33.796875 48.1875 
Q 26.515625 48.1875 22.3125 43.546875 
Q 18.109375 38.921875 18.109375 30.90625 
L 18.109375 0 
L 9.078125 0 
L 9.078125 54.6875 
L 18.109375 54.6875 
L 18.109375 46.1875 
Q 21.34375 51.125 25.703125 53.5625 
Q 30.078125 56 35.796875 56 
Q 45.21875 56 50.046875 50.171875 
Q 54.890625 44.34375 54.890625 33.015625 
z
" id="DejaVuSans-110"/>
      <path d="M 4.203125 54.6875 
L 13.1875 54.6875 
L 24.421875 12.015625 
L 35.59375 54.6875 
L 46.1875 54.6875 
L 57.421875 12.015625 
L 68.609375 54.6875 
L 77.59375 54.6875 
L 63.28125 0 
L 52.6875 0 
L 40.921875 44.828125 
L 29.109375 0 
L 18.5 0 
z
" id="DejaVuSans-119"/>
      <path d="M 64.40625 67.28125 
L 64.40625 56.890625 
Q 59.421875 61.53125 53.78125 63.8125 
Q 48.140625 66.109375 41.796875 66.109375 
Q 29.296875 66.109375 22.65625 58.46875 
Q 16.015625 50.828125 16.015625 36.375 
Q 16.015625 21.96875 22.65625 14.328125 
Q 29.296875 6.6875 41.796875 6.6875 
Q 48.140625 6.6875 53.78125 8.984375 
Q 59.421875 11.28125 64.40625 15.921875 
L 64.40625 5.609375 
Q 59.234375 2.09375 53.4375 0.328125 
Q 47.65625 -1.421875 41.21875 -1.421875 
Q 24.65625 -1.421875 15.125 8.703125 
Q 5.609375 18.84375 5.609375 36.375 
Q 5.609375 53.953125 15.125 64.078125 
Q 24.65625 74.21875 41.21875 74.21875 
Q 47.75 74.21875 53.53125 72.484375 
Q 59.328125 70.75 64.40625 67.28125 
z
" id="DejaVuSans-67"/>
     </defs>
     <use xlink:href="#DejaVuSans-84"/>
     <use x="44.083984" xlink:href="#DejaVuSans-101"/>
     <use x="105.607422" xlink:href="#DejaVuSans-109"/>
     <use x="203.019531" xlink:href="#DejaVuSans-112"/>
     <use x="266.496094" xlink:href="#DejaVuSans-101"/>
     <use x="328.019531" xlink:href="#DejaVuSans-114"/>
     <use x="369.132812" xlink:href="#DejaVuSans-97"/>
     <use x="430.412109" xlink:href="#DejaVuSans-116"/>
     <use x="469.621094" xlink:href="#DejaVuSans-117"/>
     <use x="533" xlink:href="#DejaVuSans-114"/>
     <use x="571.863281" xlink:href="#DejaVuSans-101"/>
     <use x="633.386719" xlink:href="#DejaVuSans-32"/>
     <use x="665.173828" xlink:href="#DejaVuSans-70"/>
     <use x="722.693359" xlink:href="#DejaVuSans-108"/>
     <use x="750.476562" xlink:href="#DejaVuSans-117"/>
     <use x="813.855469" xlink:href="#DejaVuSans-99"/>
     <use x="868.835938" xlink:href="#DejaVuSans-97"/>
     <use x="930.115234" xlink:href="#DejaVuSans-116"/>
     <use x="969.324219" xlink:href="#DejaVuSans-105"/>
     <use x="997.107422" xlink:href="#DejaVuSans-111"/>
     <use x="1058.289062" xlink:href="#DejaVuSans-110"/>
     <use x="1121.667969" xlink:href="#DejaVuSans-115"/>
     <use x="1173.767578" xlink:href="#DejaVuSans-32"/>
     <use x="1205.554688" xlink:href="#DejaVuSans-84"/>
     <use x="1250.138672" xlink:href="#DejaVuSans-119"/>
     <use x="1331.925781" xlink:href="#DejaVuSans-111"/>
     <use x="1393.107422" xlink:href="#DejaVuSans-32"/>
     <use x="1424.894531" xlink:href="#DejaVuSans-67"/>
     <use x="1494.71875" xlink:href="#DejaVuSans-105"/>
     <use x="1522.501953" xlink:href="#DejaVuSans-116"/>
     <use x="1561.710938" xlink:href="#DejaVuSans-105"/>
     <use x="1589.494141" xlink:href="#DejaVuSans-101"/>
     <use x="1651.017578" xlink:href="#DejaVuSans-115"/>
    </g>
   </g>
   <g id="legend_1">
    <g id="patch_7">
     <path d="M 61.8 304.584 
L 150.679688 304.584 
Q 151.879687 304.584 151.879687 303.384 
L 151.879687 286.37025 
Q 151.879687 285.17025 150.679688 285.17025 
L 61.8 285.17025 
Q 60.6 285.17025 60.6 286.37025 
L 60.6 303.384 
Q 60.6 304.584 61.8 304.584 
z
" style="fill:#ffffff;opacity:0.8;stroke:#cccccc;stroke-linejoin:miter;"/>
    </g>
    <g id="line2d_33">
     <path d="M 63 290.029312 
L 75 290.029312 
" style="fill:none;stroke:#0000ff;stroke-linecap:square;stroke-width:1.5;"/>
    </g>
    <g id="line2d_34"/>
    <g id="text_19">
     <!-- city 1, mean=25, sd=3 -->
     <g transform="translate(79.8 292.129312)scale(0.06 -0.06)">
      <defs>
       <path d="M 11.71875 12.40625 
L 22.015625 12.40625 
L 22.015625 4 
L 14.015625 -11.625 
L 7.71875 -11.625 
L 11.71875 4 
z
" id="DejaVuSans-44"/>
       <path d="M 10.59375 45.40625 
L 73.1875 45.40625 
L 73.1875 37.203125 
L 10.59375 37.203125 
z
M 10.59375 25.484375 
L 73.1875 25.484375 
L 73.1875 17.1875 
L 10.59375 17.1875 
z
" id="DejaVuSans-61"/>
      </defs>
      <use xlink:href="#DejaVuSans-99"/>
      <use x="54.980469" xlink:href="#DejaVuSans-105"/>
      <use x="82.763672" xlink:href="#DejaVuSans-116"/>
      <use x="121.972656" xlink:href="#DejaVuSans-121"/>
      <use x="181.152344" xlink:href="#DejaVuSans-32"/>
      <use x="212.939453" xlink:href="#DejaVuSans-49"/>
      <use x="276.5625" xlink:href="#DejaVuSans-44"/>
      <use x="308.349609" xlink:href="#DejaVuSans-32"/>
      <use x="340.136719" xlink:href="#DejaVuSans-109"/>
      <use x="437.548828" xlink:href="#DejaVuSans-101"/>
      <use x="499.072266" xlink:href="#DejaVuSans-97"/>
      <use x="560.351562" xlink:href="#DejaVuSans-110"/>
      <use x="623.730469" xlink:href="#DejaVuSans-61"/>
      <use x="707.519531" xlink:href="#DejaVuSans-50"/>
      <use x="771.142578" xlink:href="#DejaVuSans-53"/>
      <use x="834.765625" xlink:href="#DejaVuSans-44"/>
      <use x="866.552734" xlink:href="#DejaVuSans-32"/>
      <use x="898.339844" xlink:href="#DejaVuSans-115"/>
      <use x="950.439453" xlink:href="#DejaVuSans-100"/>
      <use x="1013.916016" xlink:href="#DejaVuSans-61"/>
      <use x="1097.705078" xlink:href="#DejaVuSans-51"/>
     </g>
    </g>
    <g id="line2d_35">
     <path d="M 63 298.836187 
L 75 298.836187 
" style="fill:none;stroke:#008000;stroke-linecap:square;stroke-width:1.5;"/>
    </g>
    <g id="line2d_36"/>
    <g id="text_20">
     <!-- city 2, mean=15, sd=5 -->
     <g transform="translate(79.8 300.936187)scale(0.06 -0.06)">
      <use xlink:href="#DejaVuSans-99"/>
      <use x="54.980469" xlink:href="#DejaVuSans-105"/>
      <use x="82.763672" xlink:href="#DejaVuSans-116"/>
      <use x="121.972656" xlink:href="#DejaVuSans-121"/>
      <use x="181.152344" xlink:href="#DejaVuSans-32"/>
      <use x="212.939453" xlink:href="#DejaVuSans-50"/>
      <use x="276.5625" xlink:href="#DejaVuSans-44"/>
      <use x="308.349609" xlink:href="#DejaVuSans-32"/>
      <use x="340.136719" xlink:href="#DejaVuSans-109"/>
      <use x="437.548828" xlink:href="#DejaVuSans-101"/>
      <use x="499.072266" xlink:href="#DejaVuSans-97"/>
      <use x="560.351562" xlink:href="#DejaVuSans-110"/>
      <use x="623.730469" xlink:href="#DejaVuSans-61"/>
      <use x="707.519531" xlink:href="#DejaVuSans-49"/>
      <use x="771.142578" xlink:href="#DejaVuSans-53"/>
      <use x="834.765625" xlink:href="#DejaVuSans-44"/>
      <use x="866.552734" xlink:href="#DejaVuSans-32"/>
      <use x="898.339844" xlink:href="#DejaVuSans-115"/>
      <use x="950.439453" xlink:href="#DejaVuSans-100"/>
      <use x="1013.916016" xlink:href="#DejaVuSans-61"/>
      <use x="1097.705078" xlink:href="#DejaVuSans-53"/>
     </g>
    </g>
   </g>
  </g>
 </g>
 <defs>
  <clipPath id="pcc4e2b7b8b">
   <rect height="266.112" width="357.12" x="57.6" y="41.472"/>
  </clipPath>
 </defs>
</svg>
